<svg id="bold" height="512" viewBox="0 0 32 32" width="512" xmlns="http://www.w3.org/2000/svg"><path d="m26 32h-20c-3.314 0-6-2.686-6-6v-20c0-3.314 2.686-6 6-6h20c3.314 0 6 2.686 6 6v20c0 3.314-2.686 6-6 6z" fill="#fff9dd"/><path d="m15.233 14.5c-.326 0-.61-.238-.659-.569l-.518-3.501-2.203-1.175c-.325-.173-.448-.577-.275-.902.174-.325.576-.449.902-.274l2.5 1.333c.186.1.315.282.346.491l.566 3.833c.054.364-.198.703-.562.757-.032.005-.065.007-.097.007z" fill="#ffe777"/><path d="m19.767 14.5c-.07 0-.142-.011-.213-.035-.349-.118-.536-.496-.419-.845l.934-2.775-1.708-1.708c-.26-.26-.26-.682 0-.943s.682-.26.943 0l2 2c.179.179.242.444.16.684l-1.066 3.167c-.093.28-.352.455-.631.455z" fill="#ffe777"/><g fill="#ffd200"><path d="m17.5 24c-.827 0-1.5-.673-1.5-1.5 0-.137.019-.274.055-.406l2.489-8.581c.074-.256.333-.41.598-.347l1.296.312c.263.063.428.324.372.589l-1.839 8.731c-.142.697-.759 1.202-1.471 1.202z"/><path d="m16.521 23.193c-.021 0-.042-.001-.063-.004-.228-.028-.404-.208-.434-.43l-1.834-8.689c-.056-.264.109-.525.371-.589l1.294-.313c.264-.063.522.089.598.344l1.527 5.167c.025.086.027.177.005.264l-.98 3.873c-.057.224-.258.377-.484.377z"/></g></svg>