<svg id="effect" height="512" viewBox="0 0 36 36" width="512" xmlns="http://www.w3.org/2000/svg"><path d="m8.377 4.167c6.917 0 11.667-3.583 15-3.583s10.333 1.916 10.333 17.249-9.417 17.583-13.083 17.583c-17.167.001-24.5-31.249-12.25-31.249z" fill="#efefef"/><path d="m19.5 8.7c-1.41.63-2.81.59-4.22-.09-1.37-.66-2.84-1.11-4.37-1.11h-.08c-1.84 0-3.33 1.48-3.33 3.3 0 2.19.34 4.36 1.02 6.44l.81 2.51c.45 1.36.75 2.77.9 4.2l.42 3.84c.1.97.93 1.71 1.92 1.71.92 0 1.72-.65 1.89-1.56l1.07-5.62c.17-.94 1-1.62 1.97-1.62s1.8.68 1.97 1.62l1.07 5.62c.17.91.97 1.56 1.89 1.56.99 0 1.82-.74 1.92-1.71l.42-3.84c.15-1.43.45-2.84.9-4.2l.81-2.51c.689-2.109.986-4.262 1.072-6.55z" fill="#f3f3f1"/><path d="m28.5 14.382v-2.882c0-2.761-2.463-5-5.501-5-1.365 0-2.63.651-3.333 1.715l-.002.004c-.34.515-.111 1.074.334 1.348.928.573 1.777 1.244 2.252 2.167.611 1.189 1.512 1.535 2.487 1.24.897-.272 1.878.097 2.301.866l.421.766c.258.471 1.041.304 1.041-.224z" fill="#2fdf84"/><path d="m25.31 12.88c-.18 0-.38.03-.57.09-.98.3-1.88-.05-2.49-1.24-.48-.92-1.32-1.59-2.25-2.16-.45-.28-.68-.84-.34-1.35l.01-.01c.7-1.06 1.96-1.71 3.33-1.71.38 0 .75.04 1.11.1-1.01.21-1.9.79-2.44 1.61l-.01.01c-.34.51-.11 1.07.34 1.35.93.57 1.77 1.24 2.25 2.16.29.57.65.95 1.06 1.15z" fill="#00b871"/><g fill="#d5dbe1"><path d="m13.57 29.22c-.29.18-.64.28-1 .28-.99 0-1.82-.74-1.92-1.71l-.42-3.84c-.15-1.43-.45-2.84-.9-4.2l-.81-2.51c-.68-2.08-1.02-4.25-1.02-6.44 0-1.82 1.49-3.3 3.33-3.3h.08c.4 0 .79.03 1.18.09-1.48.33-2.59 1.64-2.59 3.21 0 2.19.34 4.36 1.02 6.44l.81 2.51c.45 1.36.75 2.77.9 4.2l.42 3.84c.06.61.42 1.14.92 1.43z"/><path d="m18.5 9.04c.33-.08.66-.19 1-.34l1.18.29c-.73.19-1.45.21-2.18.05z"/><path d="m23.43 29.22c-.29.18-.64.28-1 .28-.92 0-1.72-.65-1.89-1.56l-1.07-5.62c-.11-.59-.47-1.07-.97-1.36.29-.16.64-.26 1-.26.97 0 1.8.68 1.97 1.62l1.07 5.62c.1.55.44 1.01.89 1.28z"/><path d="m17.28 8.61c.41.2.81.34 1.22.43-1.08.23-2.15.09-3.22-.43-1.02-.49-2.08-.86-3.19-1.02.24-.06.48-.09.74-.09h.08c1.53 0 3 .45 4.37 1.11z"/></g><path d="m27.946 15.633c-.473 0-.915-.248-1.146-.666l-.422-.765c-.253-.461-.864-.681-1.425-.51-1.399.424-2.627-.166-3.372-1.615-.339-.658-.949-1.236-1.979-1.872-.418-.257-.715-.666-.815-1.12-.097-.436-.008-.89.249-1.28.838-1.27 2.355-2.056 3.962-2.056 3.447 0 6.251 2.58 6.251 5.75v2.882c0 .574-.387 1.06-.962 1.208-.113.03-.227.044-.341.044zm-2.601-3.5c.969 0 1.883.499 2.349 1.346l.057.103v-2.082c0-2.343-2.131-4.25-4.751-4.25-1.108 0-2.146.528-2.707 1.378-.052.078-.043.117-.039.133.013.059.065.123.138.167.859.531 1.923 1.29 2.525 2.463.538 1.047 1.174.995 1.603.865.273-.083.55-.123.825-.123z"/><path d="m22.43 30.25c-1.287 0-2.392-.914-2.627-2.172l-1.069-5.618c-.106-.588-.625-1.01-1.233-1.01s-1.127.422-1.231 1.003l-1.072 5.627c-.234 1.256-1.339 2.17-2.626 2.17-1.38 0-2.526-1.024-2.666-2.383l-.419-3.835c-.146-1.389-.438-2.75-.867-4.046l-.813-2.515c-.7-2.143-1.056-4.389-1.056-6.671 0-2.233 1.83-4.05 4.08-4.05 1.585 0 3.121.387 4.775 1.184 1.221.589 2.393.616 3.589.082l.611 1.369c-1.6.715-3.231.683-4.852-.1-1.446-.696-2.77-1.035-4.044-1.035-1.503 0-2.66 1.144-2.66 2.55 0 2.124.33 4.212.982 6.208l.812 2.512c.461 1.393.775 2.859.933 4.352l.419 3.837c.062.596.566 1.042 1.175 1.042.565 0 1.05-.398 1.152-.948l1.071-5.623c.232-1.289 1.371-2.229 2.706-2.229s2.474.94 2.708 2.236l1.068 5.613c.104.552.588.95 1.153.95.608 0 1.113-.446 1.174-1.037l.421-3.845c.156-1.49.471-2.956.934-4.354l.809-2.504c.31-.95.543-1.917.713-2.961l1.48.242c-.183 1.119-.434 2.16-.767 3.182l-.81 2.508c-.431 1.302-.723 2.662-.868 4.048l-.421 3.843c-.138 1.354-1.284 2.378-2.664 2.378z"/><path d="m32.167 5.79c-.827 0-1.5-.673-1.5-1.5s.673-1.5 1.5-1.5 1.5.673 1.5 1.5-.673 1.5-1.5 1.5zm0-2c-.275 0-.5.224-.5.5s.225.5.5.5.5-.224.5-.5-.225-.5-.5-.5z" fill="#a4afc1"/></svg>