<svg id="effect" height="512" viewBox="0 0 36 36" width="512" xmlns="http://www.w3.org/2000/svg"><path d="m34.904 20.355c-3.782-5.791-3.38-11.727-5.203-14.518s-7.256-7.603-20.093.782-9.572 17.5-7.566 20.569c9.388 14.372 39.561 3.423 32.862-6.833z" fill="#efefef"/><path d="m25.46 18.5h-14.92c.09.33.18.65.28.97l.65 2.05c.35 1.12.59 2.27.72 3.44l.33 3.14c.08.8.74 1.4 1.53 1.4.75 0 1.38-.54 1.52-1.27l.85-4.6c.14-.77.81-1.33 1.58-1.33s1.44.56 1.58 1.33l.85 4.6c.14.73.77 1.27 1.52 1.27.79 0 1.45-.6 1.53-1.4l.33-3.14c.13-1.17.37-2.32.72-3.44l.65-2.05c.1-.32.19-.64.28-.97z" fill="#f3f3f1"/><path d="m10.32 12.5h2.562c.379 0 .725-.214.894-.553l.447-.894c.169-.339.516-.553.894-.553h5.764c.379 0 .725.214.894.553l.447.894c.169.339.516.553.894.553h2.572c.2-1.09.31-2.19.31-3.3 0-.74-.3-1.42-.78-1.91-.478-.49-1.148-.79-1.888-.79h-.06c-1.22 0-2.4.37-3.49.91-1.19.59-2.37.59-3.56 0-1.09-.54-2.27-.91-3.49-.91h-.06c-1.48 0-2.67 1.21-2.67 2.7 0 1.11.11 2.21.32 3.3z" fill="#f3f3f1"/><path d="m21.728 16.184c-.136-.408-.518-.684-.949-.684h-5.558c-.43 0-.813.275-.949.684l-.772 2.316h9z" fill="#2fdf84"/><path d="m17.22 15.5c-.43 0-.81.28-.95.68l-.77 2.32h-2l.77-2.32c.14-.4.52-.68.95-.68z" fill="#00b871"/><g fill="#d5dbe1"><path d="m15.05 29.13c-.27.23-.62.37-1 .37-.79 0-1.45-.6-1.53-1.4l-.33-3.14c-.13-1.17-.37-2.32-.72-3.44l-.65-2.05c-.1-.32-.19-.64-.28-.97h2c.09.33.18.65.28.97l.65 2.05c.35 1.12.59 2.27.72 3.44l.33 3.14c.04.41.24.77.53 1.03z"/><path d="m22.95 29.13c-.27.23-.62.37-1 .37-.75 0-1.38-.54-1.52-1.27l-.85-4.6c-.07-.4-.29-.74-.58-.97.28-.23.63-.36 1-.36.77 0 1.44.56 1.58 1.33l.85 4.6c.07.36.26.67.52.9z"/><path d="m12 9.2c0 1.11.11 2.21.32 3.3h-2c-.21-1.09-.32-2.19-.32-3.3 0-1.49 1.19-2.7 2.67-2.7h.06c.39 0 .78.04 1.16.12-1.1.33-1.89 1.36-1.89 2.58z"/><path d="m25.12 12.5h-2c-.38 0-.73-.21-.9-.55l-.44-.9c-.17-.34-.52-.55-.9-.55h2c.38 0 .73.21.9.55l.44.9c.17.34.52.55.9.55z"/></g><path d="m21.95 30.25c-1.098 0-2.047-.79-2.257-1.878l-.851-4.606c-.073-.41-.436-.716-.842-.716s-.769.307-.842.714l-.851 4.603c-.211 1.094-1.16 1.884-2.258 1.884-1.18 0-2.158-.893-2.276-2.076l-.329-3.136c-.125-1.122-.357-2.232-.69-3.295l-.648-2.047c-.104-.33-.196-.659-.289-.999-.062-.226-.015-.467.128-.652.142-.186.362-.295.596-.295h14.92c.233 0 .454.109.596.295.143.186.189.427.128.652-.093.34-.185.669-.288.998l-.65 2.051c-.332 1.06-.564 2.17-.69 3.297l-.328 3.135c-.121 1.178-1.099 2.071-2.279 2.071zm-3.95-8.7c1.139 0 2.113.818 2.318 1.946l.849 4.599c.073.377.402.655.783.655.405 0 .742-.312.784-.725l.329-3.144c.138-1.228.39-2.433.751-3.586l.648-2.046h-12.925l.647 2.043c.362 1.156.614 2.361.751 3.584l.33 3.145c.042.417.379.729.784.729.381 0 .71-.278.784-.661l.849-4.595c.205-1.126 1.179-1.944 2.318-1.944z"/><path d="m25.69 13.25h-2.572c-.666 0-1.266-.37-1.565-.967l-.447-.896c-.043-.085-.128-.138-.224-.138h-5.764c-.096 0-.181.054-.224.139l-.447.894c-.298.597-.897.968-1.565.968h-2.562c-.359 0-.668-.255-.736-.608-.222-1.15-.334-2.308-.334-3.442 0-1.902 1.534-3.45 3.42-3.45 1.273 0 2.56.332 3.883.988.975.482 1.92.482 2.895 0 1.323-.656 2.609-.988 3.822-.988.984 0 1.846.36 2.486 1.016.64.654.994 1.518.994 2.434 0 1.111-.108 2.267-.322 3.435-.065.356-.375.615-.738.615zm-10.572-3.5h5.764c.668 0 1.268.371 1.565.968l.447.895c.043.084.128.138.224.138h1.937c.13-.868.195-1.724.195-2.55 0-.514-.206-1.019-.565-1.385-.358-.366-.838-.566-1.355-.566-1.04 0-2.103.28-3.217.832-1.402.695-2.824.695-4.227 0-1.114-.552-2.176-.832-3.156-.832-1.119 0-1.98.875-1.98 1.95 0 .84.067 1.694.201 2.55h1.931c.096 0 .181-.053.224-.138l.447-.895c.3-.597.899-.967 1.565-.967z"/><path d="m21.788 18.737-.772-2.316c-.033-.103-.129-.171-.236-.171h-5.559c-.107 0-.203.068-.236.17l-.772 2.317-1.424-.475.772-2.316c.238-.715.905-1.196 1.66-1.196h5.559c.755 0 1.422.481 1.66 1.197l.772 2.315z"/><path d="m6.697 2.294h2v1h-2z" fill="#a4afc1" transform="matrix(.707 -.707 .707 .707 .279 6.261)"/><path d="m2.631 6.36h2v1h-2z" fill="#a4afc1" transform="matrix(.707 -.707 .707 .707 -3.787 4.577)"/><path d="m3.131 1.617h1v2h-1z" fill="#a4afc1" transform="matrix(.707 -.707 .707 .707 -.787 3.334)"/></svg>