<svg id="bold" height="512" viewBox="0 0 32 32" width="512" xmlns="http://www.w3.org/2000/svg"><path d="m26 32h-20c-3.314 0-6-2.686-6-6v-20c0-3.314 2.686-6 6-6h20c3.314 0 6 2.686 6 6v20c0 3.314-2.686 6-6 6z" fill="#ffe6e2"/><path d="m18.813 24c-.909 0-1.689-.647-1.855-1.539l-.678-3.582c-.052-.287-.302-.491-.596-.491s-.544.204-.594.485l-.68 3.59c-.168.89-.948 1.537-1.858 1.537-.973 0-1.783-.726-1.882-1.689l-.266-2.445c-.091-.874-.273-1.728-.542-2.542l-.516-1.605c-.451-1.385-.68-2.836-.68-4.311 0-1.528 1.247-2.771 2.781-2.771 1.036 0 2.038.253 3.115.774.721.349 1.412.366 2.117.049.335-.151.73-.001.881.336.151.336.001.73-.335.881-1.07.48-2.161.458-3.243-.066-.891-.431-1.704-.641-2.484-.641-.848.001-1.498.646-1.498 1.439 0 1.334.207 2.646.615 3.9l.515 1.603c.296.9.499 1.848.599 2.813l.267 2.445c.029.285.268.496.556.496.268 0 .497-.189.545-.45l.68-3.586c.164-.911.966-1.576 1.906-1.576s1.742.665 1.908 1.582l.678 3.578c.049.263.278.452.545.452.288 0 .527-.212.556-.492l.267-2.452c.101-.964.303-1.912.601-2.815l.513-1.596c.194-.595.34-1.202.447-1.861.059-.363.396-.612.766-.551.363.059.61.402.551.765-.118.726-.28 1.399-.494 2.057l-.514 1.598c-.27.818-.452 1.672-.544 2.544l-.266 2.451c-.101.96-.911 1.686-1.884 1.686z" fill="#fc573b"/><path d="m22.315 14.679c-.369 0-.715-.195-.895-.523l-.268-.488c-.117-.213-.415-.315-.682-.235-.969.295-1.855-.125-2.367-1.125-.198-.388-.564-.733-1.188-1.119-.307-.191-.527-.494-.602-.833-.072-.327-.007-.668.184-.959.005-.007.009-.014.014-.021.57-.849 1.587-1.376 2.663-1.376 2.294 0 4.16 1.73 4.16 3.855v1.838c0 .454-.304.837-.756.953-.088.022-.176.033-.263.033z" fill="#fd907e"/></svg>