<svg id="effect" height="512" viewBox="0 0 36 36" width="512" xmlns="http://www.w3.org/2000/svg"><path d="m4.167 27.623c0-6.917-3.583-11.667-3.583-15s1.916-10.333 17.249-10.333 17.583 9.417 17.583 13.083c.001 17.167-31.249 24.5-31.249 12.25z" fill="#efefef"/><path d="m14.56 6.5c-.04.19-.06.38-.06.58 0 1.66 1.34 3 3 3s3-1.34 3-3c0-.2-.02-.39-.06-.58-.4.14-.78.3-1.16.49-1.19.59-2.37.59-3.56 0-.38-.19-.76-.35-1.16-.49z" fill="#2fdf84"/><path d="m13.51 11.64c-.42-.09-.85-.14-1.28-.14h-.06c-1.48 0-2.67 1.21-2.67 2.7 0 1.79.28 3.57.82 5.27l.65 2.05c.35 1.12.59 2.27.72 3.44l.33 3.14c.08.8.74 1.4 1.53 1.4.75 0 1.38-.54 1.52-1.27l.85-4.6c.14-.77.81-1.33 1.58-1.33s1.44.56 1.58 1.33l.85 4.6c.14.73.77 1.27 1.52 1.27.79 0 1.45-.6 1.53-1.4l.33-3.14c.13-1.17.37-2.32.72-3.44l.65-2.05c.54-1.7.82-3.48.82-5.27 0-.74-.3-1.42-.78-1.91s-1.15-.79-1.89-.79h-.06c-.43 0-.86.05-1.28.14-.07 2.15-1.83 3.86-3.99 3.86s-3.92-1.71-3.99-3.86z" fill="#f3f3f1"/><path d="m18.5 9.9c-.31.12-.65.18-1 .18-1.66 0-3-1.34-3-3 0-.2.02-.39.06-.58.4.14.78.3 1.16.49.27.13.53.23.79.3.08 1.22.88 2.23 1.99 2.61z" fill="#00b871"/><path d="m20.5 7.08c0 .07 0 .14-.01.21-.08 1.22-.88 2.23-1.99 2.61-1.11-.38-1.91-1.39-1.99-2.61.66.19 1.33.19 1.99 0 .26-.07.52-.17.78-.3.38-.19.76-.35 1.16-.49.04.19.06.38.06.58z" fill="#00b871"/><path d="m14.55 29.13c-.27.23-.62.37-1 .37-.79 0-1.45-.6-1.53-1.4l-.33-3.14c-.13-1.17-.37-2.32-.72-3.44l-.65-2.05c-.54-1.7-.82-3.48-.82-5.27 0-1.49 1.19-2.7 2.67-2.7h.06c.38 0 .77.04 1.14.12-1.08.34-1.87 1.37-1.87 2.58 0 1.79.28 3.57.82 5.27l.65 2.05c.35 1.12.59 2.27.72 3.44l.33 3.14c.04.41.24.77.53 1.03z" fill="#d5dbe1"/><path d="m17.5 10.83c-2.067 0-3.75-1.683-3.75-3.75 0-.252.024-.492.075-.734.045-.211.178-.393.365-.499.188-.106.413-.126.616-.055.434.151.843.324 1.249.527.971.48 1.917.48 2.892-.001.403-.202.813-.375 1.246-.526.203-.072.428-.053.616.055.188.106.32.288.365.499.051.242.075.482.075.734.001 2.067-1.682 3.75-3.749 3.75zm-2.183-3.202c.246.976 1.131 1.702 2.183 1.702s1.938-.726 2.183-1.702c-.022.011-.044.021-.066.033-1.405.695-2.826.696-4.229.001-.025-.012-.047-.022-.071-.034z"/><path d="m21.45 30.25c-1.098 0-2.047-.79-2.257-1.878l-.851-4.606c-.074-.409-.437-.716-.843-.716s-.769.307-.842.714l-.851 4.603c-.211 1.094-1.16 1.884-2.258 1.884-1.18 0-2.158-.893-2.276-2.076l-.329-3.136c-.125-1.122-.357-2.232-.69-3.295l-.648-2.047c-.567-1.788-.855-3.636-.855-5.497 0-1.902 1.534-3.45 3.42-3.45.529 0 1.012.053 1.497.156.337.072.581.364.593.709.057 1.758 1.48 3.135 3.24 3.135s3.184-1.377 3.24-3.135c.012-.345.256-.637.593-.709.485-.104.968-.156 1.437-.156.984 0 1.846.36 2.486 1.016.641.654.994 1.519.994 2.435 0 1.86-.288 3.709-.855 5.496l-.649 2.05c-.332 1.06-.564 2.17-.69 3.297l-.328 3.135c-.12 1.178-1.098 2.071-2.278 2.071zm-3.95-8.7c1.139 0 2.113.818 2.318 1.946l.849 4.599c.073.377.402.655.783.655.405 0 .742-.312.784-.725l.329-3.144c.138-1.228.39-2.433.751-3.586l.65-2.053c.521-1.641.785-3.337.785-5.043 0-.514-.206-1.019-.565-1.385-.357-.365-.838-.565-1.354-.565-.228 0-.441.012-.65.036-.369 2.267-2.317 3.964-4.68 3.964s-4.311-1.697-4.68-3.965c-.199-.023-.396-.035-.59-.035-1.119 0-1.98.875-1.98 1.95 0 1.706.264 3.402.785 5.043l.649 2.05c.362 1.156.614 2.361.751 3.584l.33 3.145c.042.417.379.729.784.729.381 0 .71-.278.784-.661l.849-4.595c.205-1.126 1.179-1.944 2.318-1.944z"/><path d="m32 14.25c-.827 0-1.5-.673-1.5-1.5s.673-1.5 1.5-1.5 1.5.673 1.5 1.5-.673 1.5-1.5 1.5zm0-2c-.275 0-.5.225-.5.5s.225.5.5.5.5-.225.5-.5-.225-.5-.5-.5z" fill="#a4afc1"/></svg>