<svg id="bold" height="512" viewBox="0 0 32 32" width="512" xmlns="http://www.w3.org/2000/svg"><path d="m26 32h-20c-3.314 0-6-2.686-6-6v-20c0-3.314 2.686-6 6-6h20c3.314 0 6 2.686 6 6v20c0 3.314-2.686 6-6 6z" fill="#e3f8fa"/><path d="m22.167 15.333h-2.343c-.762 0-1.448-.424-1.789-1.105l-.263-.526c-.114-.227-.342-.368-.596-.368h-2.352c-.254 0-.482.141-.596.368l-.263.526c-.341.682-1.027 1.105-1.789 1.105h-2.343v-1.333h2.343c.254 0 .482-.141.596-.368l.263-.526c.341-.683 1.027-1.106 1.789-1.106h2.352c.762 0 1.448.424 1.789 1.105l.263.526c.113.228.342.369.596.369h2.343z" fill="#8ce1eb"/><path d="m19.289 24c-.938 0-1.745-.665-1.918-1.581l-.71-3.747c-.059-.312-.337-.538-.661-.538s-.602.226-.661.538l-.71 3.748c-.173.915-.98 1.58-1.918 1.58-1 0-1.834-.744-1.941-1.732l-.278-2.566c-.098-.903-.29-1.8-.571-2.665l-.542-1.67c-.473-1.457-.713-2.971-.713-4.5.001-1.581 1.297-2.867 2.89-2.867 1.087 0 2.133.264 3.254.808.801.389 1.58.389 2.381 0 1.12-.544 2.167-.808 3.199-.808 1.647 0 2.943 1.286 2.943 2.867 0 1.53-.24 3.044-.713 4.5l-.542 1.67c-.281.866-.473 1.762-.571 2.665l-.278 2.566c-.106.988-.94 1.732-1.94 1.732zm-3.289-7.2c.964 0 1.793.683 1.971 1.624l.71 3.747c.054.287.31.495.608.495.317 0 .582-.233.616-.542l.278-2.566c.107-.994.319-1.981.628-2.933l.542-1.67c.429-1.323.647-2.699.647-4.088 0-.845-.698-1.533-1.556-1.533-.881 0-1.737.22-2.672.674-1.176.57-2.369.57-3.545 0-.935-.454-1.792-.674-2.618-.674-.912 0-1.61.688-1.61 1.533 0 1.39.218 2.765.647 4.089l.542 1.67c.309.952.521 1.939.628 2.933l.278 2.566c.034.309.298.542.616.542.298 0 .554-.208.608-.495l.71-3.747c.179-.942 1.008-1.625 1.972-1.625z" fill="#26c6da"/></svg>