<svg id="effect" height="512" viewBox="0 0 36 36" width="512" xmlns="http://www.w3.org/2000/svg"><path d="m13.411 34.999c6.298-2.859 12.105-1.559 15.14-2.936 3.035-1.378 8.617-6.016 2.28-19.978s-15.841-12.12-19.18-10.605c-15.632 7.095-9.395 38.582 1.76 33.519z" fill="#efefef"/><path d="m28.12 9.049c-6.747-2.065-13.493-2.065-20.24 0-.828.253-1.38 1.037-1.38 1.902v2.736l23-.438v-2.299c0-.864-.552-1.648-1.38-1.901z" fill="#f3f3f1"/><g fill="#2fdf84"><path d="m20.5 16.5h-5v-2.5c0-1.381 1.119-2.5 2.5-2.5 1.381 0 2.5 1.119 2.5 2.5z"/><path d="m25.5 16.5h-5v-2.5c0-1.381 1.119-2.5 2.5-2.5 1.381 0 2.5 1.119 2.5 2.5z"/><path d="m29.5 12c-.683-.516-1.698-.7-2.63-.228-.872.441-1.37 1.392-1.37 2.37v2.358h3c.552 0 1-.448 1-1z"/><path d="m15.5 16.5h-5v-2.5c0-1.381 1.119-2.5 2.5-2.5 1.381 0 2.5 1.119 2.5 2.5z"/><path d="m7.5 16.5h3v-2.5c0-.69-.28-1.32-.73-1.77s-1.08-.73-1.77-.73c-.56 0-1.09.19-1.5.5v3.5c0 .552.448 1 1 1z"/></g><path d="m6.5 21.438v3.611c0 .866.552 1.649 1.38 1.903 6.747 2.065 13.493 2.065 20.24 0 .828-.253 1.38-1.037 1.38-1.903v-3.361z" fill="#f3f3f1"/><path d="m20.5 19.5h-5v2.5c0 1.381 1.119 2.5 2.5 2.5 1.381 0 2.5-1.119 2.5-2.5z" fill="#2fdf84"/><path d="m25.5 19.5h-5v2.5c0 1.381 1.119 2.5 2.5 2.5 1.381 0 2.5-1.119 2.5-2.5z" fill="#2fdf84"/><path d="m28.5 19.5h-3v2.358c0 .978.498 1.928 1.37 2.37.932.472 1.947.288 2.63-.228v-3.5c0-.552-.448-1-1-1z" fill="#2fdf84"/><path d="m15.5 19.5h-5v2.5c0 1.381 1.119 2.5 2.5 2.5 1.381 0 2.5-1.119 2.5-2.5z" fill="#2fdf84"/><path d="m6.5 24c.41.31.94.5 1.5.5.69 0 1.32-.28 1.77-.73s.73-1.08.73-1.77v-2.5h-3c-.552 0-1 .448-1 1z" fill="#2fdf84"/><path d="m9.5 16.5h-2c-.55 0-1-.45-1-1v-3.5c.41-.31.94-.5 1.5-.5.36 0 .7.08 1.01.21-.19.07-.36.17-.51.29v3.5c0 .55.45 1 1 1z" fill="#00b871"/><path d="m8.5 24c.15.12.32.22.51.29-.31.13-.65.21-1.01.21-.56 0-1.09-.19-1.5-.5v-3.5c0-.55.45-1 1-1h2c-.55 0-1 .45-1 1z" fill="#00b871"/><path d="m7.88 9.05c-.83.25-1.38 1.04-1.38 1.9v.8h2v-.8c0-.86.55-1.65 1.38-1.9 3.04-.93 6.08-1.44 9.12-1.53-3.7-.12-7.41.39-11.12 1.53z" fill="#d5dbe1"/><path d="m9.88 26.95c-.83-.25-1.38-1.04-1.38-1.9v-.717h-2v.717c0 .86.55 1.65 1.38 1.9 3.71 1.14 7.42 1.65 11.12 1.53-3.04-.09-6.08-.6-9.12-1.53z" fill="#d5dbe1"/><path d="m30.25 11.75h-1.5v-.798c0-.545-.349-1.033-.85-1.186-6.568-2.01-13.23-2.011-19.801 0-.5.153-.85.641-.85 1.186v.798h-1.5v-.798c0-1.198.786-2.275 1.91-2.62 6.861-2.1 13.818-2.1 20.68 0 1.125.345 1.91 1.422 1.91 2.62v.798z"/><path d="m20.5 17.25h-5c-.414 0-.75-.336-.75-.75v-2.5c0-1.792 1.458-3.25 3.25-3.25s3.25 1.458 3.25 3.25v2.5c0 .414-.336.75-.75.75zm-4.25-1.5h3.5v-1.75c0-.965-.785-1.75-1.75-1.75s-1.75.785-1.75 1.75z"/><path d="m25.5 17.25h-5c-.414 0-.75-.336-.75-.75v-2.5c0-1.792 1.458-3.25 3.25-3.25s3.25 1.458 3.25 3.25v2.5c0 .414-.336.75-.75.75zm-4.25-1.5h3.5v-1.75c0-.965-.785-1.75-1.75-1.75s-1.75.785-1.75 1.75z"/><path d="m28.5 17.25h-3c-.414 0-.75-.336-.75-.75v-2.358c0-1.298.699-2.491 1.782-3.039 1.1-.557 2.443-.44 3.42.299.188.141.298.363.298.598v3.5c0 .965-.785 1.75-1.75 1.75zm-2.25-1.5h2.25c.138 0 .25-.112.25-.25v-3.08c-.409-.19-.974-.266-1.541.021-.583.295-.959.962-.959 1.701z"/><path d="m15.5 17.25h-5c-.414 0-.75-.336-.75-.75v-2.5c0-1.792 1.458-3.25 3.25-3.25s3.25 1.458 3.25 3.25v2.5c0 .414-.336.75-.75.75zm-4.25-1.5h3.5v-1.75c0-.965-.785-1.75-1.75-1.75s-1.75.785-1.75 1.75z"/><path d="m10.5 17.25h-3c-.965 0-1.75-.785-1.75-1.75v-3.5c0-.235.11-.457.298-.598 1.244-.94 3.146-.809 4.252.298.612.612.95 1.429.95 2.3v2.5c0 .414-.336.75-.75.75zm-3.25-4.832v3.082c0 .138.112.25.25.25h2.25v-1.75c0-.47-.181-.911-.51-1.24-.511-.511-1.339-.65-1.99-.342z"/><path d="m18 29.243c-3.455 0-6.909-.525-10.34-1.575-1.125-.345-1.91-1.422-1.91-2.62v-.798h1.5v.798c0 .545.349 1.033.85 1.186 6.569 2.012 13.231 2.012 19.801 0 .5-.153.85-.641.85-1.186v-.798h1.5v.798c0 1.198-.786 2.275-1.91 2.62-3.432 1.05-6.886 1.575-10.341 1.575z"/><path d="m18 25.25c-1.792 0-3.25-1.458-3.25-3.25v-2.5c0-.414.336-.75.75-.75h5c.414 0 .75.336.75.75v2.5c0 1.792-1.458 3.25-3.25 3.25zm-1.75-5v1.75c0 .965.785 1.75 1.75 1.75s1.75-.785 1.75-1.75v-1.75z"/><path d="m23 25.25c-1.792 0-3.25-1.458-3.25-3.25v-2.5c0-.414.336-.75.75-.75h5c.414 0 .75.336.75.75v2.5c0 1.792-1.458 3.25-3.25 3.25zm-1.75-5v1.75c0 .965.785 1.75 1.75 1.75s1.75-.785 1.75-1.75v-1.75z"/><path d="m28.002 25.246c-.503 0-1.008-.115-1.471-.35-1.082-.547-1.781-1.74-1.781-3.039v-2.357c0-.414.336-.75.75-.75h3c.965 0 1.75.785 1.75 1.75v3.5c0 .235-.11.457-.298.598-.566.429-1.256.648-1.95.648zm-1.752-4.996v1.608c0 .738.376 1.406.958 1.7.567.288 1.133.212 1.542.021v-3.079c0-.138-.112-.25-.25-.25z"/><path d="m13 25.25c-1.792 0-3.25-1.458-3.25-3.25v-2.5c0-.414.336-.75.75-.75h5c.414 0 .75.336.75.75v2.5c0 1.792-1.458 3.25-3.25 3.25zm-1.75-5v1.75c0 .965.785 1.75 1.75 1.75s1.75-.785 1.75-1.75v-1.75z"/><path d="m8 25.25c-.703 0-1.396-.231-1.952-.652-.188-.141-.298-.363-.298-.598v-3.5c0-.965.785-1.75 1.75-1.75h3c.414 0 .75.336.75.75v2.5c0 .871-.337 1.688-.95 2.3s-1.429.95-2.3.95zm-.75-1.668c.651.308 1.479.169 1.99-.342.329-.329.51-.77.51-1.24v-1.75h-2.25c-.138 0-.25.112-.25.25z"/><path d="m5.783 4.013h2v1h-2z" fill="#a4afc1" transform="matrix(.707 -.707 .707 .707 -1.204 6.118)"/><path d="m1.717 8.078h2v1h-2z" fill="#a4afc1" transform="matrix(.707 -.707 .707 .707 -5.27 4.434)"/><path d="m2.217 3.336h1v2h-1z" fill="#a4afc1" transform="matrix(.707 -.707 .707 .707 -2.27 3.192)"/></svg>