<svg id="bold" height="512" viewBox="0 0 32 32" width="512" xmlns="http://www.w3.org/2000/svg"><path d="m26 32h-20c-3.314 0-6-2.686-6-6v-20c0-3.314 2.686-6 6-6h20c3.314 0 6 2.686 6 6v20c0 3.314-2.686 6-6 6z" fill="#f5e6fe"/><path d="m18.383 24c-.766 0-1.426-.551-1.572-1.311l-.513-2.793c-.027-.149-.155-.26-.298-.26s-.27.111-.297.259l-.513 2.789c-.146.765-.807 1.316-1.573 1.316-.822 0-1.504-.623-1.586-1.449l-.199-1.899c-.074-.664-.212-1.324-.408-1.957l-.391-1.239c-.064-.206-.12-.408-.177-.615-.054-.2-.012-.414.115-.579.126-.166.321-.262.529-.262h9c.208 0 .403.096.529.262.126.165.169.379.115.579-.057.208-.113.41-.176.611l-.394 1.247c-.195.63-.333 1.29-.407 1.958l-.199 1.899c-.081.821-.763 1.444-1.585 1.444zm-2.383-5.697c.79 0 1.467.57 1.609 1.354l.512 2.786c.025.128.135.223.262.223.133 0 .245-.107.259-.247l.2-1.907c.084-.756.238-1.499.46-2.214l.305-.965h-7.215l.304.962c.223.717.378 1.461.462 2.213l.199 1.907c.015.145.126.251.26.251.127 0 .237-.096.262-.229l.512-2.783c.142-.782.819-1.351 1.609-1.351z" fill="#be63f9"/><path d="m20.806 12.667h-1.607c-.479 0-.915-.247-1.14-.646l-.28-.497-3.581.033-.257.464c-.226.4-.662.647-1.141.647h-1.6c-.314 0-.585-.219-.652-.526-.143-.66-.215-1.324-.215-1.974 0-1.196 1.048-2.168 2.336-2.168.816 0 1.641.189 2.488.563.576.253 1.111.253 1.688 0 .846-.374 1.67-.563 2.449-.563.653 0 1.232.217 1.667.611.449.408.706.974.706 1.555 0 .638-.07 1.3-.208 1.968-.064.311-.337.533-.653.533zm-6.607-2.445h3.603c.479 0 .915.247 1.14.646l.28.497 1.023-.021c.059-.401.089-.796.089-1.178 0-.209-.096-.41-.269-.567-.186-.169-.454-.266-.733-.266-.63 0-1.273.151-1.95.449-.917.404-1.847.404-2.762 0-.677-.298-1.32-.449-1.913-.449-.59 0-1.04.374-1.04.833 0 .384.03.775.089 1.167h1.046l.257-.464c.224-.399.66-.647 1.14-.647z" fill="#d9a4fc"/><path d="m18.833 17h-5.667c-.161 0-.312-.077-.406-.208-.094-.13-.12-.298-.069-.451l.515-1.544c.16-.476.605-.797 1.108-.797h3.372c.503 0 .948.321 1.107.798l.515 1.544c.051.152.025.32-.069.451s-.245.207-.406.207z" fill="#be63f9"/></svg>