<svg id="effect" height="512" viewBox="0 0 36 36" width="512" xmlns="http://www.w3.org/2000/svg"><path d="m27.417 3.914c-6.915.129-11.732-3.365-15.064-3.302s-10.296 2.109-10.009 17.44 9.744 17.404 13.41 17.336c17.163-.321 23.911-31.703 11.663-31.474z" fill="#efefef"/><path d="m23.5 14c0 .41-.17.79-.44 1.06l-4.5 4.5-2.12-2.12 4.5-4.5c.27-.27.65-.44 1.06-.44.83 0 1.5.67 1.5 1.5z" fill="#2fdf84"/><path d="m18.56 19.56-9.5 9.5c-.27.27-.65.44-1.06.44-.83 0-1.5-.67-1.5-1.5 0-.41.17-.79.44-1.06l9.5-9.5z" fill="#f3f3f1"/><path d="m22.94 12.94-4.5 4.5 1.12 1.12-1 1-2.12-2.12 4.5-4.5c.27-.27.65-.44 1.06-.44.39 0 .74.15 1 .39-.02.01-.04.03-.06.05z" fill="#00b871"/><path d="m8.5 28c0 .44.19.84.5 1.11-.26.24-.62.39-1 .39-.83 0-1.5-.67-1.5-1.5 0-.41.17-.79.44-1.06l9.5-9.5 1 1-8.5 8.5c-.27.27-.44.65-.44 1.06z" fill="#d5dbe1"/><path d="m8 30.25c-1.241 0-2.25-1.01-2.25-2.25 0-.601.234-1.166.659-1.591l14-14c.425-.425.99-.659 1.591-.659 1.241 0 2.25 1.01 2.25 2.25 0 .601-.234 1.166-.659 1.591l-14 14c-.425.425-.99.659-1.591.659zm14-17c-.2 0-.389.078-.53.22l-14 14c-.142.141-.22.33-.22.53 0 .413.336.75.75.75.2 0 .389-.078.53-.22l14-14c.142-.142.22-.33.22-.53 0-.413-.336-.75-.75-.75z"/><path d="m16.75 17.086h1.5v2.828h-1.5z" transform="matrix(.707 -.707 .707 .707 -7.956 17.793)"/><path d="m23.78 13.28-1.06-1.06 2.277-2.277c.07-.07.045-.205.002-.299-.475-1.038-.251-2.279.557-3.088 1.038-1.039 2.851-1.039 3.889 0 1.072 1.072 1.072 2.816 0 3.889l-1.061-1.061c.487-.487.487-1.28 0-1.768-.473-.473-1.295-.473-1.768 0-.368.368-.47.932-.253 1.403.32.7.2 1.479-.306 1.983z"/><path d="m6 9.63c-.827 0-1.5-.673-1.5-1.5s.673-1.5 1.5-1.5 1.5.673 1.5 1.5-.673 1.5-1.5 1.5zm0-2c-.276 0-.5.225-.5.5s.224.5.5.5.5-.225.5-.5-.224-.5-.5-.5z" fill="#a4afc1"/></svg>