<svg id="bold" height="512" viewBox="0 0 32 32" width="512" xmlns="http://www.w3.org/2000/svg"><path d="m26 32h-20c-3.314 0-6-2.686-6-6v-20c0-3.314 2.686-6 6-6h20c3.314 0 6 2.686 6 6v20c0 3.314-2.686 6-6 6z" fill="#ffe6e2"/><path d="m15.5 11c-1.286 0-2.333-.976-2.333-2.176 0-.147.016-.29.049-.435.031-.137.118-.254.24-.323.122-.07.265-.085.4-.042.264.084.514.181.764.295.592.268 1.169.268 1.762-.001.249-.114.499-.211.763-.295.134-.043.279-.028.4.042.122.069.208.187.24.323.033.145.049.287.049.435-.001 1.201-1.048 2.177-2.334 2.177z" fill="#fd907e"/><path d="m17.969 24c-.783 0-1.457-.564-1.605-1.342l-.532-2.901c-.031-.166-.173-.291-.332-.291s-.301.124-.331.289l-.532 2.898c-.149.783-.823 1.347-1.606 1.347-.839 0-1.536-.637-1.62-1.482l-.206-1.974c-.076-.689-.219-1.376-.424-2.038l-.406-1.288c-.36-1.144-.543-2.327-.543-3.519 0-1.305 1.048-2.367 2.335-2.367.344 0 .66.035.979.103.299.064.516.324.525.63.033 1.001.835 1.785 1.827 1.785s1.795-.784 1.827-1.785c.01-.306.227-.566.525-.63.318-.068.635-.103.941-.103.669 0 1.258.248 1.697.699.436.449.676 1.041.676 1.667 0 1.191-.183 2.375-.543 3.519l-.406 1.291c-.204.66-.348 1.346-.423 2.038l-.206 1.974c-.081.843-.778 1.48-1.617 1.48zm-2.469-5.867c.807 0 1.498.582 1.644 1.385l.531 2.895c.027.145.152.253.294.253.151 0 .277-.121.293-.281l.207-1.98c.085-.78.245-1.551.476-2.294l.407-1.293c.32-1.014.482-2.063.482-3.118 0-.273-.109-.542-.299-.738-.243-.25-.613-.31-.942-.287-.304 1.446-1.569 2.51-3.092 2.51-1.524 0-2.789-1.065-3.092-2.511-.068-.005-.135-.007-.201-.007-.59 0-1.04.464-1.04 1.033 0 1.055.162 2.104.482 3.118l.406 1.291c.231.746.391 1.517.477 2.294l.206 1.98c.016.163.143.284.294.284.143 0 .267-.108.295-.257l.531-2.892c.143-.802.834-1.385 1.641-1.385z" fill="#fc573b"/></svg>