<svg id="effect" height="512" viewBox="0 0 36 36" width="512" xmlns="http://www.w3.org/2000/svg"><path d="m8.377 31.833c6.917 0 11.667 3.583 15 3.583s10.333-1.916 10.333-17.249-9.417-17.584-13.083-17.584c-17.167 0-24.5 31.25-12.25 31.25z" fill="#efefef"/><path d="m25.194 27.717.437-4.024c.162-1.491.478-2.962.944-4.39l.854-2.619c.71-2.176 1.071-4.448 1.071-6.734 0-1.905-1.567-3.45-3.5-3.45h-.086c-1.602 0-3.142.467-4.581 1.162-1.556.751-3.111.751-4.667 0-1.438-.695-2.978-1.162-4.58-1.162h-.086c-1.933 0-3.5 1.545-3.5 3.45 0 2.286.361 4.558 1.071 6.734l.854 2.619c.466 1.428.782 2.898.944 4.39l.437 4.024c.11 1.014.979 1.783 2.013 1.783.974 0 1.811-.684 1.99-1.628l1.118-5.876c.187-.984 1.058-1.696 2.073-1.696 1.015 0 1.886.712 2.073 1.695l1.118 5.876c.18.944 1.016 1.628 1.99 1.628 1.034.001 1.903-.768 2.013-1.782z" fill="#f3f3f1"/><path d="m13.82 29.23c-.3.18-.64.27-1 .27-1.04 0-1.9-.77-2.01-1.78l-.44-4.03c-.16-1.49-.48-2.96-.95-4.39l-.85-2.62c-.71-2.17-1.07-4.44-1.07-6.73 0-1.91 1.57-3.45 3.5-3.45h.09c.39 0 .78.03 1.17.08-1.58.33-2.76 1.71-2.76 3.37 0 2.29.36 4.56 1.07 6.73l.85 2.62c.47 1.43.79 2.9.95 4.39l.44 4.03c.07.66.46 1.21 1.01 1.51z" fill="#d5dbe1"/><path d="m24.17 29.23c-.29.18-.63.27-.99.27-.97 0-1.81-.68-1.99-1.63l-1.12-5.87c-.12-.64-.52-1.16-1.07-1.44.3-.17.64-.26 1-.26 1.01 0 1.89.71 2.07 1.7l1.12 5.87c.11.59.48 1.08.98 1.36z" fill="#d5dbe1"/><path d="m23.181 30.25c-1.333 0-2.48-.941-2.727-2.238l-1.118-5.876c-.12-.63-.682-1.086-1.336-1.086s-1.216.457-1.335 1.085l-1.118 5.877c-.247 1.297-1.394 2.238-2.727 2.238-1.421 0-2.606-1.054-2.759-2.452l-.438-4.024c-.156-1.438-.463-2.864-.911-4.238l-.854-2.619c-.735-2.255-1.108-4.599-1.108-6.967 0-2.316 1.907-4.2 4.25-4.2 1.664 0 3.269.404 4.993 1.236 1.351.651 2.664.651 4.015 0 1.724-.832 3.329-1.236 4.907-1.236 2.429 0 4.335 1.884 4.335 4.2 0 2.368-.373 4.711-1.108 6.966l-.854 2.619c-.448 1.375-.755 2.8-.911 4.238l-.438 4.024c-.152 1.399-1.337 2.453-2.758 2.453zm-5.181-10.7c1.375 0 2.556.97 2.809 2.306l1.118 5.876c.112.59.64 1.018 1.253 1.018.653 0 1.198-.479 1.268-1.114l.438-4.024c.167-1.541.496-3.069.977-4.541l.854-2.619c.686-2.104 1.034-4.292 1.034-6.501 0-1.489-1.233-2.7-2.75-2.7-1.433 0-2.825.355-4.34 1.087-1.765.853-3.554.853-5.319 0-1.515-.731-2.907-1.087-4.255-1.087-1.602 0-2.835 1.211-2.835 2.7 0 2.209.348 4.397 1.034 6.501l.854 2.619c.48 1.472.809 3 .977 4.541l.438 4.024c.069.635.614 1.114 1.268 1.114.614 0 1.141-.428 1.253-1.018l1.118-5.876c.25-1.336 1.431-2.306 2.806-2.306z"/><path d="m11.913 29.535-.015-.32c-.263-5.568-.589-12.498 2.968-18.116l1.268.803c-3.304 5.218-2.99 11.886-2.738 17.243l.015.32z"/><path d="m13.165 16.171-.211-.105c-1.359-.68-2.204-2.046-2.204-3.565h1.5c0 .948.527 1.8 1.375 2.224l.211.105z"/><path d="m13.264 19.25h-.264v-1.5h.264c1.093 0 2.076-.607 2.565-1.585l1.342.671c-.745 1.489-2.242 2.414-3.907 2.414z"/><path d="m24.087 29.535-1.498-.07.015-.32c.252-5.357.566-12.025-2.738-17.243l1.268-.803c3.558 5.618 3.231 12.548 2.968 18.116z"/><path d="m22.835 16.171-.671-1.342.211-.105c.848-.424 1.375-1.276 1.375-2.224h1.5c0 1.52-.844 2.886-2.204 3.565z"/><path d="m23 19.25h-.264c-1.665 0-3.162-.925-3.907-2.415l1.342-.671c.489.978 1.472 1.585 2.565 1.585h.264z"/><g fill="#a4afc1"><path d="m8.135 3.555h2v1h-2z" transform="matrix(.707 -.707 .707 .707 -.192 7.647)"/><path d="m4.069 7.621h2v1h-2z" transform="matrix(.707 -.707 .707 .707 -4.258 5.963)"/><path d="m4.569 2.878h1v2h-1z" transform="matrix(.707 -.707 .707 .707 -1.258 4.72)"/></g></svg>