<svg id="bold" height="512" viewBox="0 0 32 32" width="512" xmlns="http://www.w3.org/2000/svg"><path d="m26 32h-20c-3.314 0-6-2.686-6-6v-20c0-3.314 2.686-6 6-6h20c3.314 0 6 2.686 6 6v20c0 3.314-2.686 6-6 6z" fill="#ffe6e2"/><path d="m10.5 20c-.171 0-.336-.089-.429-.243l-2-3.333c-.08-.133-.093-.295-.037-.439l3-7.667c.075-.192.26-.318.466-.318h2c.172 0 .331.088.423.234.092.145.102.327.028.482l-3.595 7.516.634 3.17c.048.239-.083.477-.31.564-.059.023-.12.034-.18.034z" fill="#fc573b"/><path d="m21.5 20c-.06 0-.121-.011-.18-.034-.227-.087-.358-.326-.31-.564l.634-3.17-3.595-7.516c-.074-.155-.063-.337.028-.482.092-.146.251-.234.423-.234h2c.206 0 .391.126.465.318l3 7.667c.057.145.043.307-.037.439l-2 3.333c-.092.154-.257.243-.428.243z" fill="#fc573b"/><path d="m17.719 24c-.559 0-1.043-.376-1.15-.895l-.374-2.121c-.009-.042-.088-.103-.195-.103s-.186.061-.198.117l-.368 2.092c-.11.534-.594.91-1.153.91-.598 0-1.098-.423-1.165-.984l-.144-1.218c-.008-.063-.074-.41-.42-2.009-.145-.672-.219-1.362-.219-2.051 0-.958.777-1.738 1.732-1.738.32 0 .634.087.909.253.633.382 1.418.382 2.049.001.277-.167.592-.254.911-.254.955 0 1.732.78 1.732 1.738 0 .689-.074 1.38-.219 2.052-.346 1.598-.411 1.945-.421 2.01l-.143 1.216c-.066.561-.567.984-1.164.984z" fill="#fd907e"/></svg>