<svg id="bold" height="512" viewBox="0 0 32 32" width="512" xmlns="http://www.w3.org/2000/svg"><path d="m26 32h-20c-3.314 0-6-2.686-6-6v-20c0-3.314 2.686-6 6-6h20c3.314 0 6 2.686 6 6v20c0 3.314-2.686 6-6 6z" fill="#ffe6e2"/><path d="m24 10.726c0-.73-.464-1.369-1.153-1.589-4.736-1.516-8.96-1.515-13.694 0-.689.22-1.153.858-1.153 1.589v2.609c0 .735.591 1.333 1.318 1.333h13.363c.727 0 1.318-.598 1.318-1.333v-2.609zm-14.441-.319c4.454-1.426 8.427-1.426 12.882 0 .12.038.198.152.214.28-.636-.03-1.299.196-1.763.666-.417-.422-.994-.685-1.633-.685-.637 0-1.213.261-1.63.681-.416-.42-.993-.681-1.63-.681s-1.213.261-1.63.681c-.416-.42-.993-.681-1.63-.681-.638 0-1.216.263-1.632.684-.459-.468-1.124-.694-1.763-.665.017-.128.095-.242.215-.28zm-.226 1.606c.29-.047.611.054.82.269.188.197.291.452.291.719v.333h-1.111zm2.445.989v-.037c0-.531.432-.963.963-.963s.963.432.963.963v.37h-1.926zm3.259-.037c0-.531.432-.963.963-.963s.963.432.963.963v.37h-1.926zm3.259 0c0-.531.432-.963.963-.963s.963.432.963.963v.037.333h-1.926zm3.259.37v-.333c0-.267.104-.523.286-.714.217-.222.536-.32.829-.274l.011 1.322h-1.126z" fill="#fc573b"/><path d="m24 18.665c0-.735-.591-1.333-1.318-1.333h-13.364c-.727 0-1.318.598-1.318 1.333v2.609c0 .73.464 1.369 1.153 1.589 4.734 1.515 8.958 1.516 13.694 0 .689-.22 1.153-.858 1.153-1.589zm-14.655 2.647c.639.029 1.304-.197 1.763-.665.417.422.994.684 1.632.684.637 0 1.213-.261 1.63-.681.416.42.993.681 1.63.681s1.213-.261 1.63-.681c.416.42.993.681 1.63.681.639 0 1.216-.263 1.633-.685.464.47 1.126.696 1.763.666-.016.128-.094.242-.214.28-4.454 1.426-8.427 1.426-12.882 0-.121-.037-.199-.151-.215-.28zm-.012-2.647h1.111v.333c0 .267-.104.523-.291.719-.21.215-.53.316-.82.269zm2.445 0h1.926v.37c0 .531-.432.963-.963.963s-.963-.432-.963-.963v-.037zm3.259 0h1.926v.37c0 .531-.432.963-.963.963s-.963-.432-.963-.963zm3.259 0h1.926v.333.037c0 .531-.432.963-.963.963s-.963-.432-.963-.963zm4.386 0-.011 1.322c-.293.046-.612-.052-.829-.274-.182-.191-.286-.447-.286-.714v-.333h1.126z" fill="#fd907e"/></svg>