<svg id="effect" height="512" viewBox="0 0 36 36" width="512" xmlns="http://www.w3.org/2000/svg"><path d="m1.063 15.31c3.655 5.872 3.123 11.798 4.885 14.628s7.088 7.76 20.105-.343 9.951-17.286 8.014-20.399c-9.072-14.574-39.477-4.285-33.004 6.114z" fill="#efefef"/><path d="m23.5 11.5 1-4-4 2-2.5-3-2.5 3-4-2 1 4v1c0 1.105.895 2 2 2h7c1.105 0 2-.895 2-2z" fill="#f3f3f1"/><path d="m21.768 28.697.228-1.914c.028-.232.393-1.932.675-3.229.219-1.005.329-2.029.329-3.058 0-1.075-.871-1.946-1.946-1.946-.362 0-.718.098-1.029.285-1.247.748-2.804.748-4.051 0-.311-.186-.666-.285-1.029-.285-1.075 0-1.946.871-1.946 1.946 0 1.028.11 2.052.329 3.057.282 1.297.648 2.998.675 3.23l.228 1.914c.058.485.513.853 1.055.853.51 0 .948-.327 1.042-.779l.586-3.31c.098-.47.554-.811 1.086-.811.532 0 .988.341 1.086.811l.586 3.31c.094.451.532.779 1.042.779.542 0 .996-.368 1.054-.853z" fill="#2fdf84"/><path d="m16.29 28.91c-.16.38-.55.64-1 .64-.55 0-1-.37-1.06-.85l-.23-1.92c-.02-.23-.39-1.93-.67-3.23-.22-1-.33-2.03-.33-3.05 0-.54.22-1.03.57-1.38s.84-.57 1.38-.57c.36 0 .7.1 1.01.27-.15.08-.28.19-.39.3-.35.35-.57.84-.57 1.38 0 1.02.11 2.05.33 3.05.28 1.3.65 3 .67 3.23l.23 1.92c.01.07.03.15.06.21z" fill="#00b871"/><path d="m16.5 14.5h-2c-1.1 0-2-.9-2-2v-1l-1-4 2.29 1.14.71 2.86v1c0 1.1.9 2 2 2z" fill="#d5dbe1"/><path d="m20.714 30.25c-.862 0-1.609-.578-1.777-1.374l-.589-3.334c-.018-.083-.156-.192-.348-.192s-.33.109-.352.216l-.581 3.287c-.172.819-.919 1.397-1.781 1.397-.923 0-1.696-.65-1.8-1.514l-.228-1.914c-.016-.119-.143-.765-.663-3.16-.229-1.055-.346-2.138-.346-3.217 0-1.486 1.209-2.695 2.695-2.695.499 0 .988.136 1.415.393 1.012.605 2.268.607 3.279-.001.427-.256.916-.392 1.415-.392 1.486 0 2.695 1.209 2.695 2.695 0 1.08-.116 2.163-.347 3.218-.58 2.668-.654 3.093-.662 3.16l-.228 1.913c-.101.864-.874 1.514-1.797 1.514zm-2.714-6.4c.884 0 1.649.592 1.82 1.407l.589 3.334c.014.064.138.159.305.159.172 0 .299-.099.31-.191l.228-1.914c.011-.085.037-.315.688-3.3.207-.951.312-1.926.312-2.898 0-.659-.536-1.196-1.195-1.196-.227 0-.449.062-.644.178-1.486.893-3.336.892-4.822.001-.194-.117-.417-.179-.644-.179-.659 0-1.195.536-1.195 1.195 0 .973.104 1.947.312 2.898.573 2.643.669 3.148.688 3.302l.228 1.913c.011.093.138.191.31.191.167 0 .291-.095.309-.183l.581-3.287c.171-.839.936-1.43 1.82-1.43z"/><path d="m21.5 15.25h-7c-1.517 0-2.75-1.233-2.75-2.75v-.907l-.978-3.911c-.071-.284.029-.583.258-.767.23-.185.546-.216.805-.086l3.469 1.734 2.12-2.544c.285-.342.867-.342 1.152 0l2.12 2.544 3.469-1.734c.259-.13.574-.099.805.086.229.184.329.482.258.767l-.978 3.911v.907c0 1.517-1.233 2.75-2.75 2.75zm-8.877-6.35.604 2.418c.015.06.022.12.022.182v1c0 .689.561 1.25 1.25 1.25h7c.689 0 1.25-.561 1.25-1.25v-1c0-.062.008-.122.022-.182l.606-2.418-2.542 1.271c-.308.156-.687.077-.911-.19l-1.924-2.309-1.924 2.308c-.224.268-.602.347-.911.19z"/><path d="m4.167 6.804c-.827 0-1.5-.673-1.5-1.5s.673-1.5 1.5-1.5 1.5.673 1.5 1.5-.673 1.5-1.5 1.5zm0-2c-.275 0-.5.225-.5.5s.225.5.5.5.5-.225.5-.5-.225-.5-.5-.5z" fill="#a4afc1"/></svg>