<svg id="effect" height="512" viewBox="0 0 36 36" width="512" xmlns="http://www.w3.org/2000/svg"><path d="m8.114 5.564c-1.805 6.677-6.504 10.327-7.374 13.545s-.847 10.475 13.955 14.477 19.432-4.501 20.388-8.041c4.481-16.572-23.772-31.807-26.969-19.981z" fill="#efefef"/><path d="m22.899 25.182.296-2.958c.036-.358.511-2.986.878-4.991.284-1.553.427-3.136.427-4.725v-.001c0-1.661-1.132-3.007-2.529-3.007-.471 0-.933.152-1.338.44-1.621 1.156-3.645 1.156-5.266 0-.404-.288-.866-.44-1.338-.44-1.397 0-2.529 1.346-2.529 3.007 0 1.589.143 3.172.427 4.725.367 2.005.842 4.634.878 4.992l.296 2.958c.075.75.666 1.318 1.371 1.318.664 0 1.233-.506 1.355-1.203l.761-5.116c.127-.727.72-1.253 1.411-1.253.691 0 1.284.527 1.411 1.253l.761 5.116c.122.698.692 1.203 1.355 1.203.706 0 1.298-.568 1.373-1.318z" fill="#f3f3f1"/><path d="m22.53 26.03c-.25.29-.61.47-1 .47-.67 0-1.24-.51-1.36-1.2l-.76-5.12c-.06-.32-.21-.61-.41-.82.26-.27.62-.43 1-.43.69 0 1.28.52 1.41 1.25l.76 5.12c.05.28.17.54.36.73z" fill="#d5dbe1"/><path d="m15.47 26.03c-.24.29-.6.47-1 .47-.7 0-1.29-.57-1.37-1.32l-.29-2.96c-.04-.35-.52-2.98-.88-4.99-.29-1.55-.43-3.13-.43-4.72 0-.83.28-1.58.74-2.13.46-.54 1.09-.88 1.79-.88.35 0 .69.08 1 .24-.29.16-.56.37-.79.64-.46.55-.74 1.3-.74 2.13 0 1.59.14 3.17.43 4.72.36 2.01.84 4.64.88 4.99l.29 2.96c.04.33.17.63.37.85z" fill="#d5dbe1"/><path d="m21.528 27.25c-1.028 0-1.909-.767-2.094-1.824l-.764-5.135c-.061-.348-.344-.614-.669-.614s-.608.266-.672.632l-.758 5.097c-.188 1.076-1.069 1.843-2.097 1.843-1.094 0-2.003-.857-2.117-1.994l-.296-2.958c-.012-.119-.121-.84-.87-4.932-.292-1.593-.439-3.228-.439-4.859 0-2.071 1.471-3.757 3.279-3.757.628 0 1.241.2 1.773.58 1.356.967 3.04.967 4.395 0 .533-.379 1.146-.58 1.773-.58 1.808 0 3.279 1.686 3.279 3.757 0 1.629-.148 3.265-.439 4.861-.749 4.091-.857 4.812-.87 4.931l-.296 2.958c-.115 1.137-1.024 1.994-2.118 1.994zm-3.528-9.073c1.056 0 1.96.788 2.15 1.875l.764 5.134c.056.319.316.564.614.564.319 0 .588-.276.625-.642l.296-2.958c.011-.114.046-.459.886-5.051.275-1.507.415-3.052.415-4.59 0-1.245-.798-2.258-1.779-2.258-.314 0-.626.104-.903.301-1.892 1.35-4.244 1.35-6.136 0-.276-.197-.588-.301-.902-.301-.981 0-1.779 1.012-1.779 2.257 0 1.541.14 3.085.415 4.589.84 4.593.875 4.938.886 5.052l.296 2.959c.037.367.305.643.625.643.298 0 .558-.245.617-.583l.758-5.096c.192-1.107 1.096-1.895 2.152-1.895z"/><path d="m8.334 25.249c-1.171 0-1.941-.307-2.336-.925-.177-.277-.352-.748-.174-1.418.636-2.392 5.541-5.868 10.12-8.251 4.139-2.156 12.403-5.555 14.058-2.98.685 1.058-.009 2.549-2.065 4.429l-1.012-1.107c1.786-1.632 1.873-2.42 1.816-2.508-.459-.714-5.145-.126-12.104 3.497-5.593 2.913-8.999 5.938-9.363 7.307-.031.119-.029.197-.012.223.081.127.731.409 2.608.077l.262 1.477c-.68.119-1.278.179-1.798.179z"/><path d="m27.666 25.249c-.519 0-1.117-.06-1.796-.181l.262-1.477c1.878.332 2.528.049 2.607-.076.017-.026.02-.105-.012-.224-.364-1.369-3.77-4.395-9.363-7.307-6.958-3.623-11.646-4.213-12.103-3.5-.06.092.036.913 1.919 2.596l-1 1.118c-2.145-1.918-2.879-3.44-2.181-4.525 1.65-2.573 9.917.824 14.057 2.98 4.579 2.384 9.483 5.86 10.12 8.251.178.67.003 1.141-.174 1.419-.396.619-1.166.926-2.336.926z"/><path d="m31 6.425c-.827 0-1.5-.673-1.5-1.5s.673-1.5 1.5-1.5 1.5.673 1.5 1.5-.673 1.5-1.5 1.5zm0-2c-.276 0-.5.224-.5.5s.224.5.5.5.5-.224.5-.5-.224-.5-.5-.5z" fill="#a4afc1"/></svg>