<svg id="bold" height="512" viewBox="0 0 32 32" width="512" xmlns="http://www.w3.org/2000/svg"><path d="m26 32h-20c-3.314 0-6-2.686-6-6v-20c0-3.314 2.686-6 6-6h20c3.314 0 6 2.686 6 6v20c0 3.314-2.686 6-6 6z" fill="#f5e6fe"/><path d="m13.333 8c-2.022 0-3.667 1.645-3.667 3.667v1.833c0 .643.523 1.167 1.167 1.167h2.5c-1.291 0-2.333-1.042-2.333-2.333 1.556 0 2.333-1.167 2.333-2.333 0 1.167.778 2.333 2.333 2.333 0 1.291-1.042 2.333-2.333 2.333h2.5c.643 0 1.167-.523 1.167-1.167v-1.833c0-2.022-1.645-3.667-3.667-3.667z" fill="#be63f9"/><path d="m15.333 17.74c0-.647.2-1.247.547-1.74h-5.38c-1.38 0-2.5 1.12-2.5 2.5v2.333c0 .273.227.5.5.5h7.353c-.06-.28-.147-.68-.273-1.26-.16-.766-.247-1.553-.247-2.333z" fill="#be63f9"/><path d="m22.052 24c-.559 0-1.043-.376-1.15-.895l-.374-2.121c-.009-.042-.088-.103-.195-.103s-.186.061-.198.117l-.368 2.092c-.109.534-.593.91-1.152.91-.598 0-1.098-.423-1.165-.984l-.144-1.218c-.008-.063-.074-.41-.42-2.009-.145-.672-.219-1.362-.219-2.051 0-.958.777-1.738 1.732-1.738.32 0 .634.087.909.253.633.382 1.418.382 2.049.001.276-.166.59-.253.91-.253.956-.001 1.733.779 1.733 1.737 0 .689-.074 1.38-.219 2.052-.346 1.598-.411 1.945-.421 2.01l-.143 1.216c-.067.561-.567.984-1.165.984z" fill="#d9a4fc"/></svg>