<svg id="bold" height="512" viewBox="0 0 32 32" width="512" xmlns="http://www.w3.org/2000/svg"><path d="m26 32h-20c-3.314 0-6-2.686-6-6v-20c0-3.314 2.686-6 6-6h20c3.314 0 6 2.686 6 6v20c0 3.314-2.686 6-6 6z" fill="#ffe6e2"/><path d="m19.167 13.505c-.171 0-.341-.065-.471-.195-.26-.26-.26-.682 0-.943l1.518-1.518c-.378-.768-.215-1.67.373-2.258.755-.756 2.073-.756 2.828 0 .377.377.585.88.585 1.414s-.208 1.036-.586 1.414c-.26.26-.683.26-.943 0s-.26-.683 0-.943c.126-.126.195-.293.195-.471s-.069-.345-.195-.471c-.252-.253-.691-.252-.942 0-.196.196-.251.497-.136.749.243.531.149 1.123-.237 1.509l-1.518 1.518c-.13.13-.301.195-.471.195z" fill="#fc573b"/><path d="m13.899 15.985-5.46 5.46c-.283.282-.439.659-.439 1.06 0 .827.673 1.5 1.5 1.5.401 0 .777-.156 1.061-.439l5.46-5.46z" fill="#fd907e"/><path d="m18.5 12.005c-.401 0-.777.156-1.061.439l-2.126 2.126 2.121 2.121 2.126-2.126c.284-.283.44-.66.44-1.06 0-.827-.673-1.5-1.5-1.5z" fill="#fc573b"/></svg>