<svg id="effect" height="512" viewBox="0 0 36 36" width="512" xmlns="http://www.w3.org/2000/svg"><path d="m34.904 20.355c-3.782-5.791-3.38-11.727-5.203-14.518s-7.256-7.603-20.093.782-9.572 17.5-7.566 20.569c9.388 14.372 39.561 3.423 32.862-6.833z" fill="#efefef"/><path d="m21.768 18.647.228-1.914c.028-.232.393-1.932.675-3.229.219-1.005.329-2.029.329-3.058 0-1.075-.871-1.946-1.946-1.946-.362 0-.718.098-1.029.285-1.247.748-2.804.748-4.051 0-.31-.187-.666-.285-1.028-.285-1.075 0-1.946.871-1.946 1.946 0 1.028.11 2.052.329 3.057.282 1.297.648 2.998.675 3.23l.228 1.914c.058.485.513.853 1.055.853.51 0 .948-.327 1.042-.779l.586-3.31c.097-.47.553-.811 1.085-.811.532 0 .988.341 1.086.811l.586 3.31c.094.451.532.779 1.042.779.542 0 .996-.368 1.054-.853z" fill="#f3f3f1"/><path d="m28.5 14.5h-1.271c-.956 0-1.779.683-1.964 1.621-.339 1.712-.518 2.88-.518 2.88-.234 1.994-1.969 3.499-4.033 3.499-1.033 0-1.994-.384-2.722-1.024-.729.645-1.682 1.024-2.706 1.024-2.064 0-3.799-1.505-4.033-3.501 0 0-.188-1.193-.52-2.878-.186-.938-1.008-1.621-1.965-1.621h-1.268c-.552 0-1 .448-1 1v9c0 1.105.895 2 2 2h19c1.105 0 2-.895 2-2v-9c0-.552-.448-1-1-1z" fill="#2fdf84"/><path d="m10.5 26.5h-2c-1.1 0-2-.9-2-2v-9c0-.55.45-1 1-1h1.27c.15 0 .29.02.43.05-.41.13-.7.5-.7.95v9c0 1.1.9 2 2 2z" fill="#00b871"/><path d="m28.8 14.55c-.77.17-1.38.78-1.53 1.57-.34 1.71-.52 2.88-.52 2.88-.24 1.99-1.97 3.5-4.04 3.5-.34 0-.68-.04-1-.12 1.61-.4 2.84-1.72 3.04-3.38 0 0 .18-1.17.52-2.88.18-.94 1-1.62 1.96-1.62h1.27c.1 0 .21.02.3.05z" fill="#00b871"/><g fill="#d5dbe1"><path d="m16.23 18.65c.01.07.03.15.06.21-.16.38-.55.64-1 .64-.55 0-1-.37-1.06-.85l-.23-1.92c-.02-.23-.39-1.93-.67-3.23-.22-1-.33-2.03-.33-3.05 0-.54.22-1.03.57-1.38s.84-.57 1.38-.57c.36 0 .7.1 1.01.27-.15.08-.28.19-.39.3-.35.35-.57.84-.57 1.38 0 1.02.11 2.05.33 3.05.28 1.3.65 3 .67 3.23z"/><path d="m21.67 18.72c.01.05.03.1.04.14-.14.38-.53.64-1 .64-.51 0-.94-.33-1.04-.78l-.58-3.31c-.02-.09-.05-.17-.09-.24.18-.34.57-.57 1-.57.53 0 .99.34 1.09.81z"/><path d="m22.04 8.77c0 .01-.01.01-.01.01-.63.38-1.33.56-2.03.56-.34 0-.67-.04-1-.13.36-.09.7-.23 1.03-.43.31-.18.66-.28 1.02-.28s.7.1.99.27z"/></g><path d="m20.714 20.25c-.862 0-1.61-.578-1.777-1.375l-.589-3.334c-.018-.082-.156-.191-.348-.191s-.33.109-.352.215l-.581 3.287c-.171.82-.919 1.398-1.781 1.398-.924 0-1.697-.651-1.8-1.515l-.228-1.914c-.016-.119-.144-.764-.663-3.159-.229-1.055-.346-2.137-.346-3.216 0-1.486 1.209-2.696 2.695-2.696.499 0 .988.136 1.415.392 1.012.606 2.268.606 3.279 0 .427-.256.916-.392 1.415-.392 1.486 0 2.695 1.209 2.695 2.696 0 1.08-.116 2.162-.347 3.218-.461 2.119-.645 3.021-.663 3.159l-.227 1.913c-.1.863-.873 1.514-1.797 1.514zm-2.714-6.4c.884 0 1.648.591 1.82 1.406l.589 3.334c.015.064.138.159.305.159.172 0 .299-.099.31-.191l.228-1.914c.011-.086.038-.316.688-3.3.207-.951.312-1.926.312-2.898 0-.66-.536-1.196-1.195-1.196-.227 0-.449.062-.644.178-1.486.892-3.334.892-4.822 0-.194-.117-.417-.178-.644-.178-.659 0-1.195.537-1.195 1.196 0 .972.104 1.947.312 2.897.573 2.642.669 3.148.688 3.302l.228 1.914c.011.092.138.191.31.191.167 0 .29-.095.309-.183l.581-3.287c.172-.839.936-1.43 1.82-1.43z"/><path d="m27.5 27.25h-19c-1.517 0-2.75-1.233-2.75-2.75v-9c0-.965.785-1.75 1.75-1.75h1.269c1.311 0 2.446.936 2.7 2.226.336 1.702.525 2.906.525 2.906.193 1.647 1.607 2.868 3.292 2.868.815 0 1.6-.297 2.209-.836.282-.25.708-.251.992-.001.614.54 1.404.837 2.227.837 1.685 0 3.099-1.219 3.288-2.836.004-.026.186-1.208.528-2.938.255-1.29 1.39-2.225 2.699-2.225h1.271c.965 0 1.75.785 1.75 1.75v9c0 1.516-1.233 2.749-2.75 2.749zm-20-12c-.138 0-.25.112-.25.25v9c0 .689.561 1.25 1.25 1.25h19c.689 0 1.25-.561 1.25-1.25v-9c0-.138-.112-.25-.25-.25h-1.271c-.595 0-1.111.427-1.229 1.016-.334 1.687-.512 2.841-.513 2.849-.275 2.346-2.329 4.135-4.774 4.135-.976 0-1.922-.291-2.721-.828-.795.538-1.735.828-2.707.828-2.445 0-4.499-1.79-4.778-4.164s-.186-1.172-.511-2.82c-.116-.589-.633-1.016-1.229-1.016z"/><path d="m22.957 3.474h1v2h-1z" fill="#a4afc1" transform="matrix(.707 -.707 .707 .707 3.707 17.897)"/><path d="m27.023 7.539h1v2h-1z" fill="#a4afc1" transform="matrix(.707 -.707 .707 .707 2.027 21.972)"/><path d="m26.523 3.797h2v1h-2z" fill="#a4afc1" transform="matrix(.707 -.707 .707 .707 5.023 20.72)"/></svg>