<svg id="bold" height="512" viewBox="0 0 32 32" width="512" xmlns="http://www.w3.org/2000/svg"><path d="m26 32h-20c-3.314 0-6-2.686-6-6v-20c0-3.314 2.686-6 6-6h20c3.314 0 6 2.686 6 6v20c0 3.314-2.686 6-6 6z" fill="#e3f8fa"/><g fill="#26c6da"><path d="m10.396 10.4c0-.013 0-.033.007-.047.293-1.346 1.495-2.353 2.93-2.353 1.442 0 2.65 1.02 2.937 2.373 0 .007.007.02.007.027-.007 0-.02.007-.027.007-1.122.3-1.849-.92-1.876-.973-.053-.087-.14-.147-.24-.16s-.2.013-.28.087c-1.415 1.312-3.304 1.059-3.458 1.039z"/><path d="m15.883 11.12c-.901 0-1.542-.627-1.863-1.027-1.522 1.193-3.318 1.02-3.685.973-.007.1 0 .193.013.287.182 1.487 1.45 2.647 2.985 2.647 1.542 0 2.817-1.167 2.984-2.667.013-.087.02-.173.013-.267-.153.041-.3.054-.447.054z"/><path d="m16.467 15.353c-.1-.013-.2-.02-.3-.02h-5.667c-1.38 0-2.5 1.12-2.5 2.5v2.333c0 .273.227.5.5.5h7.207c-.033-.173-.08-.373-.127-.593-.16-.767-.247-1.553-.247-2.333 0-.96.44-1.82 1.134-2.387z"/></g><path d="m22.052 24c-.559 0-1.043-.376-1.15-.895l-.374-2.121c-.009-.042-.088-.103-.195-.103s-.186.061-.198.117l-.368 2.092c-.109.534-.593.91-1.152.91-.598 0-1.098-.423-1.165-.984l-.144-1.218c-.008-.063-.074-.41-.42-2.009-.145-.672-.219-1.362-.219-2.051 0-.958.777-1.738 1.732-1.738.32 0 .634.087.909.253.633.382 1.418.382 2.049.001.276-.166.59-.253.91-.253.956-.001 1.733.779 1.733 1.737 0 .689-.074 1.38-.219 2.052-.346 1.598-.411 1.945-.421 2.01l-.143 1.216c-.067.561-.567.984-1.165.984z" fill="#8ce1eb"/></svg>