<svg id="bold" height="512" viewBox="0 0 32 32" width="512" xmlns="http://www.w3.org/2000/svg"><path d="m26 32h-20c-3.314 0-6-2.686-6-6v-20c0-3.314 2.686-6 6-6h20c3.314 0 6 2.686 6 6v20c0 3.314-2.686 6-6 6z" fill="#fff9dd"/><path d="m22.333 11.333c-.919 0-1.667-.748-1.667-1.667.001-.918.748-1.666 1.667-1.666s1.667.748 1.667 1.667-.748 1.666-1.667 1.666z" fill="#ffd200"/><path d="m18.718 11.083h3.064v1.333h-3.064z" fill="#ffd200" transform="matrix(.707 -.707 .707 .707 -2.377 17.76)"/><path d="m13.899 15.98-5.46 5.46c-.283.283-.439.659-.439 1.06 0 .827.673 1.5 1.5 1.5.401 0 .777-.156 1.061-.439l5.46-5.46z" fill="#ffe777"/><path d="m18.5 12c-.401 0-.777.156-1.061.439l-2.126 2.126 2.121 2.121 2.126-2.126c.284-.283.44-.659.44-1.06 0-.827-.673-1.5-1.5-1.5z" fill="#ffd200"/></svg>