<svg id="bold" height="512" viewBox="0 0 32 32" width="512" xmlns="http://www.w3.org/2000/svg"><path d="m26 32h-20c-3.314 0-6-2.686-6-6v-20c0-3.314 2.686-6 6-6h20c3.314 0 6 2.686 6 6v20c0 3.314-2.686 6-6 6z" fill="#e3f8fa"/><path d="m23.304 12.659c.091-1.054.059-2.58-1.255-3.664-1.198-.993-2.49-1.25-3.738-.741-.35.143-.855.354-1.346.56-.613.257-1.316.257-1.93 0-.491-.206-.997-.417-1.348-.56-1.248-.508-2.54-.251-3.736.741-1.314 1.085-1.346 2.611-1.255 3.666.126 1.438.899 2.525 1.579 3.483.126.178.141.242.009.459-.301.49-.512.97-.624 1.419-.407 1.571-.172 3.227.727 5.08.249.479 1.003.973 1.596.887.656-.102 1.115-.815 1.25-1.242.152-.479.235-.963.315-1.431.043-.248.085-.495.137-.734.035-.154.066-.31.098-.465.093-.455.18-.885.346-1.26.005-.013.013-.022.018-.034l.398 1.996c.147.683.758 1.181 1.455 1.181s1.308-.497 1.454-1.189l.397-1.989c.006.014.015.025.021.039.163.369.251.799.344 1.255.032.156.064.312.097.46.053.245.096.493.139.74.08.468.163.952.315 1.432.135.425.594 1.139 1.26 1.243.044.006.089.009.135.009.564 0 1.221-.456 1.459-.914.891-1.836 1.126-3.492.721-5.057-.114-.455-.324-.935-.624-1.423-.133-.22-.118-.284.007-.46.68-.961 1.453-2.049 1.579-3.487zm-7.45 7.89-.556-2.785c.455-.142.95-.142 1.405 0l-.555 2.778c-.03.144-.267.137-.294.007zm4.781-5.175c-.443.629-.462 1.258-.055 1.926.229.374.387.727.469 1.055.328 1.269.129 2.587-.613 4.119-.033.048-.131.119-.212.161-.069-.072-.156-.194-.187-.291-.124-.393-.196-.812-.272-1.255-.046-.267-.092-.534-.15-.802-.033-.145-.063-.291-.092-.438-.103-.505-.21-1.026-.429-1.523-.402-.926-1.035-1.521-1.938-1.819-.745-.245-1.565-.245-2.31 0h-.001c-.902.298-1.536.893-1.935 1.814-.222.502-.329 1.023-.432 1.528-.03.147-.059.293-.094.444-.057.263-.103.53-.149.797-.076.444-.148.863-.272 1.254-.031.098-.118.22-.188.293-.08-.041-.174-.106-.197-.133-.757-1.56-.956-2.878-.626-4.153.08-.323.238-.675.468-1.051.406-.666.387-1.295-.057-1.926-.612-.862-1.245-1.753-1.34-2.828-.104-1.215.135-1.993.777-2.523.555-.46 1.092-.688 1.625-.688.253 0 .505.052.758.154.347.142.849.351 1.336.556.941.394 2.02.394 2.961 0 .487-.204.989-.413 1.335-.555.784-.321 1.563-.146 2.385.534.641.529.88 1.307.776 2.521-.094 1.075-.728 1.966-1.341 2.829z" fill="#26c6da"/></svg>