<svg id="bold" height="512" viewBox="0 0 32 32" width="512" xmlns="http://www.w3.org/2000/svg"><path d="m26 32h-20c-3.314 0-6-2.686-6-6v-20c0-3.314 2.686-6 6-6h20c3.314 0 6 2.686 6 6v20c0 3.314-2.686 6-6 6z" fill="#fff9dd"/><path d="m18.667 24h-5.333c-1.103 0-2-.897-2-2v-6.667c0-1.103.897-2 2-2h.372c.287 0 .542-.183.633-.456l.362-1.088c.117-.35.492-.539.844-.422.274.091.449.344.456.617.007-.273.182-.525.456-.617.352-.118.727.072.843.422l.363 1.088c.091.272.346.456.633.456h.372c1.103 0 2 .897 2 2v6.667c-.001 1.103-.898 2-2.001 2zm-5.334-9.333c-.368 0-.667.299-.667.667v6.666c0 .368.299.667.667.667h5.333c.368 0 .667-.299.667-.667v-6.667c0-.368-.299-.667-.667-.667h-.372c-.862 0-1.624-.549-1.897-1.368l-.363-1.089c-.022-.065-.033-.131-.035-.195-.001.065-.012.131-.034.195l-.363 1.089c-.273.818-1.036 1.368-1.898 1.368h-.371z" fill="#ffd200"/><path d="m16.833 12h-1.667c-.643 0-1.166-.523-1.166-1.167v-1c0-1.011.822-1.833 1.833-1.833h.333c1.012 0 1.834.822 1.834 1.833v1c0 .644-.523 1.167-1.167 1.167z" fill="#ffd200"/><path d="m16.833 21.333h-1.667c-.643 0-1.167-.523-1.167-1.167v-3c.001-.643.524-1.166 1.168-1.166h1.667c.643 0 1.166.523 1.166 1.167v3c0 .643-.523 1.166-1.167 1.166z" fill="#ffe777"/></svg>