<svg id="bold" height="512" viewBox="0 0 32 32" width="512" xmlns="http://www.w3.org/2000/svg"><path d="m26 32h-20c-3.314 0-6-2.686-6-6v-20c0-3.314 2.686-6 6-6h20c3.314 0 6 2.686 6 6v20c0 3.314-2.686 6-6 6z" fill="#ffe6e2"/><path d="m15.057 14.719c-.246-.123-.548-.023-.671.224-.223.446-.672.724-1.171.724h-.066c.266-1.217.71-2.413 1.44-3.566.148-.233.078-.542-.155-.69s-.542-.078-.69.155c-.421.664-.754 1.343-1.018 2.03-.242-.311-.392-.69-.392-1.096 0-.276-.224-.5-.5-.5s-.5.224-.5.5c0 .847.39 1.641 1.041 2.17-.741 2.627-.605 5.332-.477 7.802l.045.885c.012.268.234.477.499.477.008 0 .016 0 .024-.001.276-.013.489-.247.476-.523l-.045-.89c-.099-1.907-.198-3.85.072-5.753h.247c.881 0 1.672-.489 2.065-1.276.123-.248.023-.548-.224-.672z" fill="#fd907e"/><path d="m20.667 12.5c0-.276-.224-.5-.5-.5s-.5.224-.5.5c0 .39-.156.758-.417 1.035-.26-.666-.585-1.324-.993-1.969-.148-.233-.458-.303-.69-.155-.233.148-.303.457-.155.69.725 1.146 1.168 2.333 1.435 3.542-.51-.056-.974-.321-1.263-.754-.154-.23-.464-.293-.693-.139-.23.153-.292.464-.139.693.509.765 1.362 1.221 2.281 1.222.27 1.903.172 3.846.072 5.753l-.045.89c-.013.276.2.51.476.523.008 0 .016.001.024.001.265 0 .487-.209.499-.477l.045-.885c.131-2.506.269-5.255-.51-7.919.664-.464 1.073-1.229 1.073-2.051z" fill="#fd907e"/><path d="m19.289 24c-.938 0-1.745-.665-1.918-1.581l-.71-3.747c-.059-.312-.337-.538-.661-.538s-.602.226-.661.538l-.71 3.748c-.173.915-.98 1.58-1.918 1.58-1 0-1.834-.744-1.941-1.732l-.278-2.566c-.098-.903-.29-1.8-.571-2.665l-.542-1.67c-.473-1.457-.713-2.971-.713-4.5.001-1.581 1.297-2.867 2.89-2.867 1.087 0 2.133.264 3.254.808.801.389 1.58.389 2.381 0 1.12-.544 2.167-.808 3.199-.808 1.647 0 2.943 1.286 2.943 2.867 0 1.53-.24 3.044-.713 4.5l-.542 1.67c-.281.866-.473 1.762-.571 2.665l-.278 2.566c-.106.988-.94 1.732-1.94 1.732zm-3.289-7.2c.964 0 1.793.683 1.971 1.624l.71 3.747c.054.287.31.495.608.495.317 0 .582-.233.616-.542l.278-2.566c.107-.994.319-1.981.628-2.933l.542-1.67c.429-1.323.647-2.699.647-4.088 0-.845-.698-1.533-1.556-1.533-.881 0-1.737.22-2.672.674-1.176.57-2.369.57-3.545 0-.935-.454-1.792-.674-2.618-.674-.912 0-1.61.688-1.61 1.533 0 1.39.218 2.765.647 4.089l.542 1.67c.309.952.521 1.939.628 2.933l.278 2.566c.034.309.298.542.616.542.298 0 .554-.208.608-.495l.71-3.747c.179-.942 1.008-1.625 1.972-1.625z" fill="#fc573b"/></svg>