<svg id="bold" height="512" viewBox="0 0 32 32" width="512" xmlns="http://www.w3.org/2000/svg"><path d="m26 32h-20c-3.314 0-6-2.686-6-6v-20c0-3.314 2.686-6 6-6h20c3.314 0 6 2.686 6 6v20c0 3.314-2.686 6-6 6z" fill="#f5e6fe"/><path d="m13.386 16c-.559 0-1.043-.376-1.15-.895l-.374-2.121c-.009-.042-.088-.103-.195-.103s-.186.061-.198.117l-.368 2.092c-.11.534-.593.91-1.153.91-.598 0-1.098-.423-1.165-.984l-.143-1.218c-.008-.063-.074-.41-.42-2.009-.145-.672-.22-1.362-.22-2.051 0-.958.778-1.738 1.733-1.738.32 0 .634.087.909.253.633.382 1.418.382 2.049.001.276-.167.591-.254.91-.254.955 0 1.732.78 1.732 1.738 0 .689-.074 1.38-.219 2.052-.346 1.598-.411 1.945-.421 2.01l-.143 1.216c-.066.561-.567.984-1.164.984z" fill="#d9a4fc"/><path d="m23.807 22.86-4.553-4.547c.88-1.087 1.413-2.473 1.413-3.98 0-2.8-1.827-5.187-4.353-6.013.227.427.353.907.353 1.42 0 .06 0 .113-.007.173 1.593.833 2.673 2.5 2.673 4.42 0 2.76-2.24 5-5 5-1.647 0-3.113-.8-4.013-2.033-.12.027-.247.033-.373.033-.52 0-1-.153-1.4-.42.993 2.207 3.213 3.753 5.787 3.753 1.507 0 2.893-.533 3.98-1.413l4.547 4.553c.133.127.299.194.473.194.173 0 .34-.067.473-.193.26-.26.26-.687 0-.947z" fill="#be63f9"/></svg>