<svg id="bold" height="512" viewBox="0 0 32 32" width="512" xmlns="http://www.w3.org/2000/svg"><path d="m26 32h-20c-3.314 0-6-2.686-6-6v-20c0-3.314 2.686-6 6-6h20c3.314 0 6 2.686 6 6v20c0 3.314-2.686 6-6 6z" fill="#fff9dd"/><path d="m13.667 13.203c-.474 0-.944-.183-1.294-.532l-1.727-1.727c-.164-.164-.194-.42-.072-.617.122-.198.363-.284.585-.21 1.037.35 2.214.075 2.995-.701l.902-.888c.701-.7 1.853-.704 2.566-.008l.22.207c.201.188.211.503.024.704l-3.206 3.454c-.036.039-.079.073-.127.099-.271.147-.569.219-.866.219z" fill="#ffe777"/><path d="m22.305 10.195c-.26-.26-.682-.26-.943 0l-.283.283-1.338-1.318c-.777-.769-2.04-.768-2.815.003l-3.281 3.255c-.38.378-.589.881-.59 1.416s.207 1.038.586 1.417l1.333 1.333-6.279 6.279c-.26.26-.26.682 0 .943.13.129.301.194.472.194s.341-.065.471-.195l12.667-12.667c.26-.261.26-.683 0-.943zm-6.388 5.445-1.333-1.333c-.126-.126-.196-.294-.195-.472 0-.179.07-.346.196-.472l.169-.168.442.442c.13.13.301.195.471.195.171 0 .341-.065.471-.195.26-.26.26-.682 0-.943l-.438-.437 1.061-1.053.434.434c.13.13.301.195.471.195s.341-.065.471-.195c.26-.26.26-.682 0-.943l-.43-.43.158-.157c.259-.257.68-.257.939 0l1.332 1.313z" fill="#ffd200"/></svg>