<svg id="bold" height="512" viewBox="0 0 32 32" width="512" xmlns="http://www.w3.org/2000/svg"><path d="m26 32h-20c-3.314 0-6-2.686-6-6v-20c0-3.314 2.686-6 6-6h20c3.314 0 6 2.686 6 6v20c0 3.314-2.686 6-6 6z" fill="#f5e6fe"/><path d="m13.385 23.333c-.559 0-1.043-.376-1.15-.895l-.374-2.121c-.009-.042-.088-.103-.195-.103s-.186.061-.198.117l-.368 2.094c-.109.533-.593.909-1.152.909-.598 0-1.098-.423-1.165-.984l-.144-1.218c-.008-.063-.074-.41-.42-2.009-.145-.672-.219-1.362-.219-2.051 0-.958.777-1.738 1.732-1.738.32 0 .634.087.909.253.633.382 1.418.382 2.049.001.276-.166.59-.253.91-.253.955 0 1.732.78 1.732 1.738 0 .689-.074 1.38-.219 2.052-.346 1.598-.411 1.945-.421 2.01l-.143 1.216c-.065.559-.566.982-1.164.982z" fill="#d9a4fc"/><path d="m23.805 16.862-8-8c-.26-.26-.682-.26-.943 0s-.26.682 0 .943l.146.146-.724.724c-.455.455-.455 1.195 0 1.65l2.057 2.057c.227.228.526.341.825.341s.598-.114.825-.341l.724-.724 4.147 4.147c.13.13.301.195.471.195s.341-.065.471-.195c.261-.261.261-.683.001-.943z" fill="#be63f9"/></svg>