<svg id="bold" height="512" viewBox="0 0 32 32" width="512" xmlns="http://www.w3.org/2000/svg"><path d="m26 32h-20c-3.314 0-6-2.686-6-6v-20c0-3.314 2.686-6 6-6h20c3.314 0 6 2.686 6 6v20c0 3.314-2.686 6-6 6z" fill="#ffe6e2"/><path d="m18.188 24c-.911 0-1.694-.646-1.861-1.537l-.682-3.579c-.051-.287-.304-.49-.601-.49s-.549.204-.6.484l-.684 3.587c-.166.889-.948 1.535-1.86 1.535-.977 0-1.788-.725-1.888-1.688l-.267-2.442c-.092-.871-.275-1.724-.545-2.538l-.518-1.604c-.452-1.384-.682-2.833-.682-4.307 0-1.527 1.252-2.769 2.79-2.769 1.038 0 2.044.253 3.126.773.563.275 1.105.346 1.654.219.357-.083.716.142.799.501s-.142.717-.501.799c-.846.193-1.699.087-2.533-.318-.895-.43-1.712-.64-2.495-.64-.854 0-1.508.644-1.508 1.436 0 1.333.208 2.643.617 3.896l.517 1.601c.298.899.502 1.846.603 2.811l.268 2.444c.029.284.271.495.562.495.27 0 .501-.189.549-.449l.683-3.583c.165-.91.969-1.574 1.911-1.574.943 0 1.747.665 1.912 1.58l.681 3.574c.049.262.281.452.551.452.291 0 .532-.211.561-.491l.269-2.451c.101-.963.305-1.91.604-2.812l.145-.448c.113-.35.491-.542.839-.429.35.113.542.489.429.839l-.146.452c-.27.816-.453 1.669-.545 2.54l-.268 2.45c-.099.956-.91 1.681-1.886 1.681z" fill="#fc573b"/><path d="m21.459 17.482c-1.401 0-2.54-1.143-2.54-2.548 0-.685.28-1.332.758-1.804-.005-.012-.01-.025-.014-.038-.706.021-1.388-.26-1.876-.758-.221.087-.457.133-.699.133-1.057 0-1.916-.861-1.916-1.921 0-1.059.859-1.92 1.916-1.92.242 0 .479.046.699.133.469-.478 1.115-.759 1.798-.759 1.401 0 2.54 1.143 2.54 2.547 0 .027-.001.053-.001.079.729.271 1.251.977 1.251 1.801 0 .243-.046.481-.133.702.478.473.758 1.12.758 1.805 0 1.405-1.14 2.548-2.541 2.548z" fill="#fd907e"/></svg>