<svg id="bold" height="512" viewBox="0 0 32 32" width="512" xmlns="http://www.w3.org/2000/svg"><path d="m26 32h-20c-3.314 0-6-2.686-6-6v-20c0-3.314 2.686-6 6-6h20c3.314 0 6 2.686 6 6v20c0 3.314-2.686 6-6 6z" fill="#e3f8fa"/><path d="m22.052 16c-.559 0-1.043-.376-1.15-.895l-.374-2.121c-.009-.042-.088-.103-.195-.103s-.186.061-.198.117l-.368 2.092c-.109.534-.593.91-1.152.91-.598 0-1.098-.423-1.165-.984l-.144-1.218c-.008-.063-.074-.41-.42-2.009-.145-.672-.219-1.362-.219-2.051 0-.958.777-1.738 1.732-1.738.32 0 .634.087.909.253.633.382 1.418.382 2.049.001.276-.167.591-.254.911-.254.955 0 1.732.78 1.732 1.738 0 .689-.074 1.38-.219 2.052-.346 1.598-.411 1.945-.421 2.01l-.143 1.216c-.067.561-.567.984-1.165.984z" fill="#8ce1eb"/><g fill="#26c6da"><path d="m12.833 23.667h-1.667c-.276 0-.5-.224-.5-.5v-2.5c0-.368.298-.667.667-.667h1.333c.368 0 .667.298.667.667v2.5c0 .276-.224.5-.5.5z"/><path d="m12.833 18h-1.667c-.276 0-.5-.224-.5-.5s.224-.5.5-.5h1.667c.276 0 .5.224.5.5s-.224.5-.5.5z"/><path d="m12.833 14h-1.667c-.276 0-.5-.224-.5-.5s.224-.5.5-.5h1.667c.276 0 .5.224.5.5s-.224.5-.5.5z"/><path d="m12.833 16h-1.667c-.276 0-.5-.224-.5-.5s.224-.5.5-.5h1.667c.276 0 .5.224.5.5s-.224.5-.5.5z"/><path d="m20 22.667h-1.5v-2.1c.567-.233.94-.833.807-1.513-.1-.473-.467-.867-.927-1-.893-.253-1.713.42-1.713 1.28 0 .56.347 1.033.833 1.233v2.1h-1.5v-8.547l-.02-.167s-.047-.273-.4-1.88c-.053-.273-.107-.547-.14-.82-.22-.166-.487-.253-.773-.253v-.5c0-.64-.527-1.167-1.167-1.167h-.833v-.666c0-.367-.3-.667-.667-.667s-.667.3-.667.667v.667h-.833c-.64 0-1.167.527-1.167 1.167v.499c-.733 0-1.333.6-1.333 1.333v11c0 .367.3.667.667.667h11.333c.367 0 .667-.3.667-.667s-.3-.666-.667-.666zm-5.333 0h-5.334v-10.334h5.333v10.334z"/></g></svg>