<svg id="bold" height="512" viewBox="0 0 32 32" width="512" xmlns="http://www.w3.org/2000/svg"><path d="m26 32h-20c-3.314 0-6-2.686-6-6v-20c0-3.314 2.686-6 6-6h20c3.314 0 6 2.686 6 6v20c0 3.314-2.686 6-6 6z" fill="#ffe6e2"/><path d="m17.719 24c-.559 0-1.043-.376-1.15-.895l-.374-2.121c-.009-.042-.088-.103-.195-.103s-.186.061-.198.117l-.368 2.092c-.11.534-.594.91-1.153.91-.598 0-1.098-.423-1.165-.984l-.144-1.218c-.008-.063-.074-.41-.42-2.009-.145-.672-.219-1.362-.219-2.051 0-.958.777-1.738 1.732-1.738.32 0 .634.087.909.253.633.382 1.418.382 2.049.001.277-.167.592-.254.911-.254.955 0 1.732.78 1.732 1.738 0 .689-.074 1.38-.219 2.052-.346 1.598-.411 1.945-.421 2.01l-.143 1.216c-.066.561-.567.984-1.164.984z" fill="#fd907e"/><path d="m22 10h-.667v-1.333c0-.367-.3-.667-.666-.667h-.667c-.367 0-.667.3-.667.667v1.333h-6.667v-1.333c.001-.367-.299-.667-.666-.667h-.667c-.367 0-.667.3-.667.667v1.333h-.666c-1.1 0-2 .9-2 2v10c0 1.1.9 2 2 2h2.053c-.133-.253-.227-.533-.26-.827l-.06-.507h-1.733c-.367 0-.667-.3-.667-.667v-7.973h13.333v7.974c0 .367-.3.667-.667.667h-1.733l-.06.507c-.033.293-.127.573-.26.827h2.054c1.1 0 2-.9 2-2v-10.001c0-1.1-.9-2-2-2z" fill="#fc573b"/></svg>