<svg id="bold" height="512" viewBox="0 0 32 32" width="512" xmlns="http://www.w3.org/2000/svg"><path d="m26 32h-20c-3.314 0-6-2.686-6-6v-20c0-3.314 2.686-6 6-6h20c3.314 0 6 2.686 6 6v20c0 3.314-2.686 6-6 6z" fill="#e3f8fa"/><path d="m21.5 15.333c-.669 0-1.296.26-1.768.732l-3.667 3.666c-.472.472-.732 1.1-.732 1.768 0 1.379 1.122 2.5 2.5 2.5.669 0 1.296-.26 1.768-.733l3.666-3.666c.473-.471.733-1.099.733-1.767 0-1.378-1.122-2.5-2.5-2.5zm-2.842 6.992c-.22.221-.513.342-.825.342-.643 0-1.167-.523-1.167-1.167 0-.312.121-.604.342-.825l1.362-1.362 1.65 1.65zm3.667-3.667-1.362 1.362-1.65-1.65 1.363-1.362c.219-.22.512-.341.824-.341.643 0 1.167.523 1.167 1.167 0 .311-.121.604-.342.824z" fill="#8ce1eb"/><path d="m18.067 8c-.893 0-1.8.233-2.767.707-.66.327-1.273.327-1.933 0-.967-.474-1.874-.707-2.814-.707-1.406 0-2.553 1.153-2.553 2.567 0 1.327.207 2.647.607 3.913l.467 1.44c.233.74.393 1.513.48 2.287l.233 2.213c.1.9.847 1.58 1.753 1.58.847 0 1.573-.607 1.727-1.44l.607-3.24c.04-.22.233-.387.46-.387s.42.167.46.387l.287 1.513c.013-.013.027-.033.04-.047l1.1-1.1-.113-.607c-.16-.86-.907-1.48-1.773-1.48-.867 0-1.613.62-1.773 1.48l-.607 3.233c-.033.207-.213.353-.413.353-.22 0-.4-.167-.427-.387l-.233-2.213c-.093-.867-.273-1.727-.54-2.553l-.46-1.44c-.36-1.133-.547-2.313-.547-3.507 0-.68.547-1.233 1.267-1.233.687 0 1.4.187 2.18.573 1.033.507 2.073.507 3.107 0 .78-.387 1.493-.573 2.227-.573.673 0 1.22.553 1.22 1.233 0 1.193-.187 2.373-.547 3.507l-.46 1.44c-.007.033-.02.06-.027.093l.487-.487c.387-.387.84-.68 1.34-.86.353-1.2.54-2.44.54-3.693-.002-1.412-1.149-2.565-2.602-2.565z" fill="#26c6da"/></svg>