<svg id="bold" height="512" viewBox="0 0 32 32" width="512" xmlns="http://www.w3.org/2000/svg"><path d="m26 32h-20c-3.314 0-6-2.686-6-6v-20c0-3.314 2.686-6 6-6h20c3.314 0 6 2.686 6 6v20c0 3.314-2.686 6-6 6z" fill="#e3f8fa"/><path d="m22.167 8h-12.334c-1.011 0-1.833.822-1.833 1.833v9c0 1.011.822 1.833 1.833 1.833h.833v2.834c0 .202.122.385.309.462.062.026.127.038.192.038.13 0 .258-.051.354-.146l3.187-3.187h7.46c1.011 0 1.833-.822 1.833-1.833v-9c-.001-1.012-.823-1.834-1.834-1.834zm-2.72 5.79c-.346 1.598-.411 1.945-.421 2.01l-.143 1.216c-.066.561-.567.984-1.164.984-.559 0-1.043-.376-1.15-.895l-.374-2.121c-.009-.042-.088-.103-.195-.103s-.186.061-.198.117l-.368 2.092c-.11.534-.594.91-1.153.91-.598 0-1.098-.423-1.165-.984l-.144-1.218c-.008-.063-.074-.41-.42-2.009-.145-.672-.219-1.362-.219-2.051 0-.958.777-1.738 1.732-1.738.32 0 .634.087.909.253.633.382 1.418.382 2.049.001.277-.167.592-.254.911-.254.955 0 1.732.78 1.732 1.738.001.689-.074 1.38-.219 2.052z" fill="#26c6da"/></svg>