<svg id="bold" height="512" viewBox="0 0 32 32" width="512" xmlns="http://www.w3.org/2000/svg"><path d="m26 32h-20c-3.314 0-6-2.686-6-6v-20c0-3.314 2.686-6 6-6h20c3.314 0 6 2.686 6 6v20c0 3.314-2.686 6-6 6z" fill="#ffe6e2"/><path d="m19.667 15.333c-2.389 0-4.333 1.944-4.333 4.333s1.943 4.334 4.333 4.334 4.333-1.944 4.333-4.333-1.944-4.334-4.333-4.334zm2.168 3.273-2.333 2.667c-.254.29-.7.305-.973.032l-1.333-1.333c-.26-.26-.26-.682 0-.943s.682-.26.943 0l.829.829 1.864-2.131c.243-.276.664-.305.941-.063.277.244.305.664.062.942z" fill="#fd907e"/><path d="m18.067 8c-.893 0-1.8.233-2.767.707-.66.327-1.273.327-1.933 0-.967-.474-1.874-.707-2.814-.707-1.406 0-2.553 1.153-2.553 2.567 0 1.327.207 2.647.607 3.913l.467 1.44c.233.74.393 1.513.48 2.287l.233 2.213c.1.9.847 1.58 1.753 1.58.847 0 1.573-.607 1.727-1.44l.607-3.24c.04-.22.233-.387.46-.387.12 0 .227.047.307.12.207-.4.46-.773.753-1.107-.3-.22-.667-.347-1.06-.347-.867 0-1.613.62-1.773 1.48l-.607 3.233c-.033.207-.213.353-.413.353-.22 0-.4-.167-.427-.387l-.233-2.213c-.093-.867-.273-1.727-.54-2.553l-.46-1.44c-.36-1.133-.547-2.313-.547-3.507 0-.68.547-1.233 1.267-1.233.687 0 1.4.187 2.18.573 1.033.507 2.073.507 3.107 0 .78-.387 1.493-.573 2.227-.573.673 0 1.22.553 1.22 1.233 0 1.193-.187 2.367-.547 3.5.287-.04.58-.067.88-.067.18 0 .353.007.527.02.313-1.12.473-2.287.473-3.453-.001-1.412-1.148-2.565-2.601-2.565z" fill="#fc573b"/></svg>