<svg id="bold" height="512" viewBox="0 0 32 32" width="512" xmlns="http://www.w3.org/2000/svg"><path d="m26 32h-20c-3.314 0-6-2.686-6-6v-20c0-3.314 2.686-6 6-6h20c3.314 0 6 2.686 6 6v20c0 3.314-2.686 6-6 6z" fill="#fff9dd"/><path d="m19.048 24c-.934 0-1.737-.666-1.91-1.583l-.706-3.743c-.057-.316-.329-.541-.649-.541s-.593.225-.648.535l-.707 3.749c-.171.917-.974 1.583-1.908 1.583-.995 0-1.824-.744-1.93-1.731l-.277-2.569c-.096-.897-.287-1.794-.57-2.665l-.536-1.674c-.469-1.447-.707-2.96-.707-4.494 0-1.581 1.288-2.867 2.872-2.867 1.075 0 2.114.264 3.234.806.792.388 1.563.388 2.352.001.934-.449 1.787-.703 2.615-.779.242-.024.481.091.617.296.135.204.148.467.031.683l-.479.893c-.055.103-.032.197-.013.244.018.045.063.126.166.16.66.226 1.099.846 1.099 1.544 0 .134-.015.263-.045.383-.029.117-.044.241-.044.369 0 .57.322 1.103.821 1.357.178.087.354.193.509.311.215.162.311.438.243.698-.031.117-.066.229-.103.344l-.551 1.721c-.284.874-.475 1.77-.571 2.666l-.277 2.571c-.104.988-.934 1.732-1.928 1.732zm-3.264-7.2c.966 0 1.79.687 1.96 1.633l.704 3.738c.054.287.307.496.6.496.311 0 .57-.232.604-.539l.277-2.571c.105-.987.316-1.974.628-2.934l.486-1.519c-.913-.506-1.471-1.454-1.471-2.503 0-.236.028-.468.083-.69.006-.191-.072-.304-.187-.344-.443-.148-.802-.488-.978-.931-.128-.321-.149-.669-.066-.996-.284.098-.577.22-.883.367-1.166.57-2.35.57-3.519-.002-.932-.451-1.781-.672-2.593-.672-.906 0-1.596.688-1.596 1.533 0 1.395.216 2.77.642 4.086l.536 1.673c.311.957.522 1.944.627 2.932l.277 2.569c.033.308.293.54.604.54.293 0 .545-.208.598-.495l.706-3.744c.17-.94.994-1.627 1.961-1.627z" fill="#ffd200"/></svg>