<svg id="bold" height="512" viewBox="0 0 32 32" width="512" xmlns="http://www.w3.org/2000/svg"><path d="m26 32h-20c-3.314 0-6-2.686-6-6v-20c0-3.314 2.686-6 6-6h20c3.314 0 6 2.686 6 6v20c0 3.314-2.686 6-6 6z" fill="#ffe6e2"/><path d="m17.719 22c-.559 0-1.043-.376-1.15-.895l-.374-2.121c-.009-.042-.088-.103-.195-.103s-.186.061-.198.117l-.368 2.092c-.11.534-.594.91-1.153.91-.598 0-1.098-.423-1.165-.984l-.144-1.218c-.008-.063-.074-.41-.42-2.009-.145-.672-.219-1.362-.219-2.051 0-.958.777-1.738 1.732-1.738.32 0 .634.087.909.253.633.382 1.418.382 2.049.001.277-.167.592-.254.911-.254.955 0 1.732.78 1.732 1.738 0 .689-.074 1.38-.219 2.052-.346 1.598-.411 1.945-.421 2.01l-.143 1.216c-.066.561-.567.984-1.164.984z" fill="#fd907e"/><path d="m20 10h-.667v-.167c0-.276-.224-.5-.5-.5h-1.069c-.218-.768-.926-1.333-1.764-1.333s-1.546.565-1.764 1.333h-1.069c-.276 0-.5.224-.5.5v.167h-.667c-1.103 0-2 .897-2 2v10c0 1.103.897 2 2 2h8c1.103 0 2-.897 2-2v-10c0-1.103-.897-2-2-2zm.667 12c0 .368-.299.667-.667.667h-8c-.368 0-.667-.299-.667-.667v-10c0-.368.299-.667.667-.667h.684c.082.564.564 1 1.15 1h4.333c.586 0 1.068-.436 1.15-1h.683c.368 0 .667.299.667.667z" fill="#fc573b"/></svg>