<svg id="bold" height="512" viewBox="0 0 32 32" width="512" xmlns="http://www.w3.org/2000/svg"><path d="m26 32h-20c-3.314 0-6-2.686-6-6v-20c0-3.314 2.686-6 6-6h20c3.314 0 6 2.686 6 6v20c0 3.314-2.686 6-6 6z" fill="#fff9dd"/><path d="m18.167 14.002h-4.333c-1.011 0-1.833-.822-1.833-1.833v-.271l-.653-2.608c-.048-.191.022-.394.177-.515.156-.122.37-.139.543-.048l2.141 1.142 1.406-1.688c.19-.228.578-.228.768 0l1.406 1.688 2.141-1.142c.173-.092.387-.075.543.048.157.121.227.324.179.515l-.652 2.607v.271c0 1.012-.822 1.834-1.833 1.834z" fill="#ffe777"/><path d="m17.719 24.002c-.559 0-1.043-.376-1.15-.895l-.374-2.121c-.009-.042-.088-.103-.195-.103s-.186.061-.198.117l-.368 2.092c-.109.533-.593.909-1.152.909-.598 0-1.098-.423-1.165-.984l-.144-1.217c-.008-.063-.074-.41-.42-2.008-.145-.672-.219-1.362-.219-2.051 0-.958.777-1.738 1.732-1.738.321 0 .635.088.91.254.632.38 1.417.381 2.048-.001.275-.165.589-.253.91-.253.955 0 1.732.78 1.732 1.738 0 .689-.074 1.38-.219 2.052-.346 1.599-.412 1.945-.421 2.009l-.143 1.216c-.066.561-.567.984-1.164.984zm.668-1.043h.007z" fill="#ffd200"/></svg>