<svg id="bold" height="512" viewBox="0 0 32 32" width="512" xmlns="http://www.w3.org/2000/svg"><path d="m26 32h-20c-3.314 0-6-2.686-6-6v-20c0-3.314 2.686-6 6-6h20c3.314 0 6 2.686 6 6v20c0 3.314-2.686 6-6 6z" fill="#ffe6e2"/><path d="m17.719 16c-.559 0-1.043-.376-1.15-.895l-.374-2.121c-.009-.042-.088-.103-.195-.103s-.186.061-.198.117l-.368 2.092c-.11.534-.594.91-1.153.91-.598 0-1.098-.423-1.165-.984l-.144-1.218c-.008-.063-.074-.41-.42-2.009-.145-.672-.219-1.362-.219-2.051 0-.958.778-1.738 1.733-1.738.32 0 .634.087.909.253.633.382 1.418.382 2.049.001.276-.167.591-.254.91-.254.955 0 1.732.78 1.732 1.738 0 .689-.074 1.38-.219 2.052-.346 1.598-.411 1.945-.421 2.01l-.143 1.216c-.066.561-.567.984-1.164.984z" fill="#fd907e"/><path d="m22.833 10.667h-1.88c-.033.446-.093.893-.186 1.333h1.9v7.333h-13.334v-7.333h1.9c-.093-.44-.153-.887-.187-1.333h-1.88c-.639 0-1.166.526-1.166 1.166v9c0 .64.527 1.167 1.167 1.167h5.107c-.08.333-.287.873-.84 1.433-.1.093-.127.233-.073.36.052.127.172.207.306.207h4.667c.133 0 .253-.08.307-.207.053-.127.027-.267-.073-.36-.555-.553-.768-1.1-.848-1.433h5.113c.64 0 1.167-.527 1.167-1.167v-9c0-.64-.527-1.166-1.167-1.166z" fill="#fc573b"/></svg>