<svg id="bold" height="512" viewBox="0 0 32 32" width="512" xmlns="http://www.w3.org/2000/svg"><path d="m26 32h-20c-3.314 0-6-2.686-6-6v-20c0-3.314 2.686-6 6-6h20c3.314 0 6 2.686 6 6v20c0 3.314-2.686 6-6 6z" fill="#ffe6e2"/><path d="m15.667 24h-1c-1.286 0-2.333-1.047-2.333-2.333v-3.667c0-.735-.598-1.333-1.333-1.333s-1.333.598-1.333 1.333v3.333c-.001.369-.3.667-.668.667s-.667-.299-.667-.667v-3.333c0-1.47 1.196-2.667 2.667-2.667s2.667 1.197 2.667 2.667v3.667c0 .551.449 1 1 1h1c.551 0 1-.449 1-1 0-.368.298-.667.667-.667.368 0 .666.299.666.667 0 1.286-1.047 2.333-2.333 2.333z" fill="#fd907e"/><g fill="#fc573b"><path d="m19 12h-2c-1.103 0-2-.897-2-2s.897-2 2-2h2c.368 0 .667.299.667.667v2.667c0 .367-.298.666-.667.666zm-2-2.667c-.368 0-.667.299-.667.667s.299.667.667.667h1.333v-1.334z"/><path d="m21 10.667h-1.667c-.368 0-.667-.299-.667-.667s.298-.667.667-.667h1.667c.368 0 .667.299.667.667s-.298.667-.667.667z"/><path d="m17.333 22c-.919 0-1.667-.822-1.667-1.833l.247-8.847c.008-.271.229-.486.5-.486h1.84c.271 0 .492.215.5.486l.247 8.793c0 1.065-.747 1.887-1.667 1.887z"/></g></svg>