<svg id="bold" height="512" viewBox="0 0 32 32" width="512" xmlns="http://www.w3.org/2000/svg"><path d="m26 32h-20c-3.314 0-6-2.686-6-6v-20c0-3.314 2.686-6 6-6h20c3.314 0 6 2.686 6 6v20c0 3.314-2.686 6-6 6z" fill="#e3f8fa"/><path d="m13.5 19.335h-1.667c-.643 0-1.167-.523-1.167-1.167v-.833c0-1.103.897-2 2-2s2 .897 2 2v.833c.001.644-.523 1.167-1.166 1.167z" fill="#8ce1eb"/><path d="m24 10.833c0-.846-.561-1.591-1.371-1.831-4.461-1.325-8.797-1.325-13.257 0-.812.24-1.372.985-1.372 1.831v2.502c0 .736.597 1.333 1.333 1.333h1.151c.714 0 1.293-.579 1.293-1.293v-.001-.461c0-.497.432-.902.963-.902s.963.404.963.902v.461c0 .714.591 1.294 1.318 1.294h7.645c.736 0 1.333-.597 1.333-1.333v-2.502zm-14.667 1.189c.294-.044.626.055.835.257.178.176.277.401.277.635v.422h-1.112zm3.408-1.344c-.636 0-1.212.254-1.629.662-.005-.005-.009-.012-.015-.017-.459-.442-1.111-.657-1.74-.63.051-.192.197-.354.397-.413 4.262-1.264 8.231-1.264 12.491 0 .198.059.343.216.396.405-.1-.005-.201-.007-.304.001-.562.041-1.061.293-1.436.671-.417-.417-.998-.678-1.642-.678-.637 0-1.213.254-1.63.663-.416-.409-.993-.663-1.63-.663s-1.213.254-1.63.663c-.415-.41-.991-.664-1.628-.664zm2.296 2.235c0-.497.432-.902.963-.902s.963.404.963.902v.432l-1.926.029zm3.259 0c0-.497.432-.902.963-.902s.963.404.963.902v.075.347h-1.926zm4.371.422h-1.111v-.347c0-.501.395-.938.88-.973.078-.005.156-.004.231.007z" fill="#26c6da"/><path d="m13.962 22.477c-.077-.187-.26-.309-.462-.309h-.333v-1c0-.276-.224-.5-.5-.5s-.5.224-.5.5v1h-.333c-.202 0-.385.122-.462.309s-.035.402.109.545l.833.833c.098.098.225.146.354.146s.256-.049.354-.146l.833-.833c.142-.143.184-.358.107-.545z" fill="#8ce1eb"/></svg>