<svg id="bold" height="512" viewBox="0 0 32 32" width="512" xmlns="http://www.w3.org/2000/svg"><path d="m26 32h-20c-3.314 0-6-2.686-6-6v-20c0-3.314 2.686-6 6-6h20c3.314 0 6 2.686 6 6v20c0 3.314-2.686 6-6 6z" fill="#e3f8fa"/><path d="m22 10.667h-12c-.735 0-1.333.598-1.333 1.333v1.805c0 1.578 1.284 2.862 2.862 2.862.899 0 1.692-.425 2.217-1.075.54.651 1.345 1.075 2.255 1.075s1.714-.424 2.255-1.075c.525.65 1.318 1.075 2.217 1.075 1.578 0 2.862-1.284 2.862-2.862v-1.805c-.002-.735-.6-1.333-1.335-1.333zm-8.943 3.138c0 .843-.686 1.528-1.529 1.528s-1.528-.686-1.528-1.528v-1.805h3.057v1.724zm2.943 1.528c-.888 0-1.61-.722-1.61-1.61v-1.723h3.219v1.724c.001.887-.721 1.609-1.609 1.609zm6-1.528c0 .843-.686 1.528-1.528 1.528s-1.529-.686-1.529-1.528v-.081-1.724h3.057z" fill="#26c6da"/><g fill="#8ce1eb"><path d="m8.667 20.667c-.215 0-.427-.104-.555-.297-.204-.306-.121-.72.185-.924l.059-.039c1.029-.687 1.644-1.836 1.644-3.074 0-2.022 1.645-3.667 3.667-3.667.368 0 .667.299.667.667s-.299.667-.667.667c-1.286 0-2.333 1.047-2.333 2.333 0 1.685-.837 3.248-2.238 4.182l-.059.039c-.114.077-.243.113-.37.113z"/><path d="m23.333 21.333c-.127 0-.256-.036-.369-.112-1.438-.959-2.297-2.563-2.297-4.292v-1.19c0-.549-.245-1.06-.673-1.403s-.98-.472-1.516-.353c-.359.08-.715-.146-.795-.506-.08-.359.147-.715.506-.795.931-.207 1.895.016 2.639.614.745.599 1.172 1.489 1.172 2.444v1.19c0 1.282.637 2.471 1.703 3.182.306.204.389.618.185.924-.129.193-.34.297-.555.297z"/></g></svg>