<svg id="bold" height="512" viewBox="0 0 32 32" width="512" xmlns="http://www.w3.org/2000/svg"><path d="m26 32h-20c-3.314 0-6-2.686-6-6v-20c0-3.314 2.686-6 6-6h20c3.314 0 6 2.686 6 6v20c0 3.314-2.686 6-6 6z" fill="#fff9dd"/><path d="m17.719 22.667c-.559 0-1.043-.376-1.15-.895l-.374-2.121c-.009-.042-.088-.103-.195-.103s-.186.061-.198.117l-.368 2.092c-.109.533-.593.909-1.152.909-.598 0-1.098-.423-1.165-.984l-.144-1.218c-.008-.063-.074-.41-.42-2.009-.145-.672-.219-1.362-.219-2.051 0-.958.777-1.738 1.732-1.738.32 0 .634.087.909.253.633.382 1.418.382 2.049.001.276-.166.59-.253.91-.253.955 0 1.732.78 1.732 1.738 0 .689-.074 1.38-.219 2.052-.346 1.598-.411 1.945-.421 2.01l-.143 1.216c-.066.561-.567.984-1.164.984z" fill="#ffe777"/><path d="m22 10.667h-7.06l-1.133-1.14c-.127-.12-.293-.193-.473-.193h-3.334c-1.1 0-2 .9-2 2v8c0 1.1.9 2 2 2h1.733l-.087-.713s-.02-.113-.127-.62h-1.519c-.367 0-.667-.3-.667-.667v-8c0-.367.3-.667.667-.667h3.06l1.133 1.14c.127.12.294.193.474.193h7.333c.367 0 .667.3.667.667v6.667c0 .366-.3.666-.667.666h-1.513c-.113.52-.133.64-.14.667l-.08.667h1.733c1.1 0 2-.9 2-2v-6.667c0-1.1-.9-2-2-2z" fill="#ffd200"/></svg>