<svg id="bold" height="512" viewBox="0 0 32 32" width="512" xmlns="http://www.w3.org/2000/svg"><path d="m26 32h-20c-3.314 0-6-2.686-6-6v-20c0-3.314 2.686-6 6-6h20c3.314 0 6 2.686 6 6v20c0 3.314-2.686 6-6 6z" fill="#fff9dd"/><path d="m17.719 20c-.559 0-1.043-.376-1.15-.895l-.374-2.121c-.009-.042-.088-.103-.195-.103s-.186.061-.198.117l-.368 2.092c-.11.534-.593.91-1.153.91-.598 0-1.098-.423-1.165-.984l-.144-1.218c-.008-.063-.074-.41-.42-2.009-.145-.672-.219-1.362-.219-2.051 0-.958.777-1.738 1.732-1.738.32 0 .634.087.909.253.633.382 1.418.382 2.049.001.277-.167.592-.254.911-.254.955 0 1.732.78 1.732 1.738 0 .689-.074 1.38-.219 2.052-.346 1.598-.411 1.945-.421 2.01l-.143 1.216c-.066.561-.567.984-1.164.984z" fill="#ffe777"/><path d="m17.083 24h-2.165c-.604 0-1.138-.429-1.269-1.02l-.254-1.131c-.403-.178-.788-.402-1.152-.669l-1.099.347c-.59.185-1.231-.067-1.528-.596l-1.079-1.868c-.3-.536-.2-1.195.242-1.609l.855-.787c-.022-.226-.033-.448-.033-.667s.011-.441.033-.666l-.85-.783c-.447-.419-.548-1.078-.251-1.607l1.087-1.882c.293-.521.936-.771 1.521-.59l1.102.348c.364-.267.749-.491 1.152-.669l.255-1.133c.129-.589.663-1.018 1.267-1.018h2.165c.604 0 1.138.429 1.269 1.02l.254 1.131c.403.178.788.402 1.152.669l1.099-.347c.59-.184 1.231.068 1.528.596l1.079 1.868c.3.536.2 1.195-.242 1.609l-.855.787c.022.225.033.447.033.666s-.011.441-.033.666l.85.783c.002.001.003.003.005.005.441.415.542 1.074.246 1.602l-1.087 1.882c-.293.521-.935.771-1.521.59l-1.102-.348c-.364.267-.749.491-1.152.669l-.255 1.133c-.129.59-.663 1.019-1.267 1.019zm-4.707-4.228c.153 0 .303.053.424.152.43.355.901.629 1.399.814.212.078.369.258.419.479l.331 1.473 2.133-.023.299-1.451c.049-.22.207-.4.419-.479.498-.185.969-.458 1.399-.814.174-.143.41-.19.625-.121l1.433.453 1.039-1.841-1.086-1c-.162-.149-.241-.37-.208-.589.042-.279.063-.557.063-.826s-.021-.547-.063-.826c-.033-.219.046-.439.208-.589l1.102-1.014-1.088-1.842-1.4.468c-.215.068-.451.022-.625-.121-.43-.355-.901-.629-1.399-.814-.212-.078-.369-.258-.419-.479l-.331-1.471-2.133.023-.299 1.451c-.049.22-.207.4-.419.479-.498.185-.969.458-1.399.814-.175.143-.41.189-.625.121l-1.433-.453-1.05 1.86 1.097.981c.162.149.241.37.208.589-.042.279-.063.557-.063.826s.021.547.063.826c.033.219-.046.439-.208.589l-1.102 1.014 1.088 1.842 1.4-.468c.066-.023.133-.033.201-.033z" fill="#ffd200"/></svg>