<svg id="bold" height="512" viewBox="0 0 32 32" width="512" xmlns="http://www.w3.org/2000/svg"><path d="m26 32h-20c-3.314 0-6-2.686-6-6v-20c0-3.314 2.686-6 6-6h20c3.314 0 6 2.686 6 6v20c0 3.314-2.686 6-6 6z" fill="#e3f8fa"/><path d="m17.719 17.333c-.559 0-1.043-.376-1.15-.895l-.374-2.121c-.009-.042-.088-.103-.195-.103s-.186.061-.198.117l-.368 2.092c-.109.533-.593.909-1.152.909-.598 0-1.098-.423-1.165-.984l-.144-1.218c-.008-.063-.074-.41-.42-2.009-.145-.672-.219-1.362-.219-2.051 0-.958.777-1.738 1.732-1.738.32 0 .634.087.909.253.633.382 1.418.382 2.049.001.276-.166.59-.253.91-.253.955 0 1.732.78 1.732 1.738 0 .689-.074 1.38-.219 2.052-.346 1.598-.411 1.945-.421 2.01l-.143 1.216c-.066.561-.567.984-1.164.984z" fill="#8ce1eb"/><path d="m23.333 21.333h-.667v-6.667c0-.733-.6-1.333-1.333-1.333h-.567c0 .027-.007.047-.013.073-.127.573-.213.973-.267 1.26h.847v6.667h-10.666v-6.667h.853c-.06-.28-.147-.687-.273-1.26-.007-.027-.013-.047-.013-.073h-.567c-.733 0-1.333.6-1.333 1.333v6.667h-.667c-.367 0-.667.3-.667.667s.3.667.667.667h14.667c.366 0 .666-.3.666-.667s-.3-.667-.667-.667z" fill="#26c6da"/></svg>