<svg id="bold" height="512" viewBox="0 0 32 32" width="512" xmlns="http://www.w3.org/2000/svg"><path d="m26 32h-20c-3.314 0-6-2.686-6-6v-20c0-3.314 2.686-6 6-6h20c3.314 0 6 2.686 6 6v20c0 3.314-2.686 6-6 6z" fill="#f5e6fe"/><path d="m22.052 24c-.559 0-1.043-.376-1.15-.895l-.374-2.121c-.009-.042-.088-.103-.195-.103s-.186.061-.198.117l-.368 2.092c-.109.534-.593.91-1.152.91-.598 0-1.098-.423-1.165-.984l-.144-1.218c-.008-.063-.074-.41-.42-2.009-.145-.672-.219-1.362-.219-2.051 0-.958.777-1.738 1.732-1.738.32 0 .634.087.909.253.633.382 1.418.382 2.049.001.276-.166.59-.253.91-.253.956-.001 1.733.779 1.733 1.737 0 .689-.074 1.38-.219 2.052-.346 1.598-.411 1.945-.421 2.01l-.143 1.216c-.067.561-.567.984-1.165.984z" fill="#d9a4fc"/><g fill="#be63f9"><path d="m13.333 16c-1.471 0-2.667-1.196-2.667-2.667s1.196-2.667 2.667-2.667 2.667 1.197 2.667 2.667-1.196 2.667-2.667 2.667z"/><path d="m13.333 8c-2.94 0-5.333 2.393-5.333 5.333 0 3.54 4.633 8.88 4.833 9.107.127.147.307.227.5.227s.373-.08.5-.227c.08-.093.86-.987 1.773-2.26-.013-.033-.02-.073-.027-.107-.127-.62-.213-1.253-.233-1.88-.693 1.073-1.44 2.06-2.013 2.767-1.453-1.787-4-5.393-4-7.627 0-2.207 1.793-4 4-4s4 1.793 4 4c0 .507-.133 1.08-.347 1.687.42-.227.9-.353 1.413-.353h.08c.12-.46.187-.913.187-1.333.001-2.941-2.393-5.334-5.333-5.334z"/></g></svg>