<svg id="bold" height="512" viewBox="0 0 32 32" width="512" xmlns="http://www.w3.org/2000/svg"><path d="m26 32h-20c-3.314 0-6-2.686-6-6v-20c0-3.314 2.686-6 6-6h20c3.314 0 6 2.686 6 6v20c0 3.314-2.686 6-6 6z" fill="#fff9dd"/><path d="m22.052 24c-.559 0-1.043-.376-1.15-.895l-.374-2.121c-.009-.042-.088-.103-.195-.103s-.186.061-.198.117l-.368 2.092c-.109.534-.593.91-1.152.91-.598 0-1.098-.423-1.165-.984l-.144-1.218c-.008-.063-.074-.41-.42-2.009-.145-.672-.219-1.362-.219-2.051 0-.958.777-1.738 1.732-1.738.32 0 .634.087.909.253.633.382 1.418.382 2.049.001.276-.166.59-.253.91-.253.956-.001 1.733.779 1.733 1.737 0 .689-.074 1.38-.219 2.052-.346 1.598-.411 1.945-.421 2.01l-.143 1.216c-.067.561-.567.984-1.165.984z" fill="#ffe777"/><path d="m15.982 21.954c-.001 0-.023-.118-.129-.621h-5.853c-.367 0-.667-.3-.667-.667v-1.333h3.5c1.006 0 1.833-.811 1.833-1.833v-1.667c0-1.013-.82-1.833-1.833-1.833h-3.5v-1.333c0-.367.3-.667.667-.667h7.333c.367 0 .667.3.667.667v2.04c.132-.017.262-.04.399-.04.319 0 .633.055.934.15v-2.15c0-1.1-.9-2-2-2v-.834c0-1.013-.82-1.833-1.833-1.833h-3.667c-1.013 0-1.833.82-1.833 1.833v.833c-1.1 0-2 .9-2 2v8c0 1.1.9 2 2 2h6.066z" fill="#ffd200"/></svg>