<svg id="bold" height="512" viewBox="0 0 32 32" width="512" xmlns="http://www.w3.org/2000/svg"><path d="m26 32h-20c-3.314 0-6-2.686-6-6v-20c0-3.314 2.686-6 6-6h20c3.314 0 6 2.686 6 6v20c0 3.314-2.686 6-6 6z" fill="#fff9dd"/><g fill="#ffd200"><path d="m17.333 8h-7.333c-1.1 0-2 .9-2 2v12c0 1.1.9 2 2 2h6.387c-.133-.253-.227-.533-.26-.827l-.06-.507h-6.067c-.367 0-.667-.3-.667-.667v-11.999c0-.367.3-.667.667-.667h7.333c.367 0 .667.3.667.667v4.693c.133-.02.267-.027.4-.027.32 0 .633.047.933.147v-4.813c0-1.1-.9-2-2-2z"/><circle cx="11.333" cy="11.333" r="1"/><circle cx="11.333" cy="14.333" r="1"/><circle cx="11.333" cy="20.667" r="1"/><circle cx="11.333" cy="17.667" r="1"/><circle cx="16" cy="11.333" r="1"/><circle cx="16" cy="14.333" r="1"/><path d="m13.667 21.333c-.276 0-.5-.224-.5-.5v-9.667c0-.276.224-.5.5-.5s.5.224.5.5v9.667c0 .276-.224.5-.5.5z"/></g><path d="m22.052 24c-.559 0-1.043-.376-1.15-.895l-.374-2.121c-.009-.042-.088-.103-.195-.103s-.186.061-.198.117l-.368 2.092c-.109.534-.593.91-1.152.91-.598 0-1.098-.423-1.165-.984l-.144-1.218c-.008-.063-.074-.41-.42-2.009-.145-.672-.219-1.362-.219-2.051 0-.958.777-1.738 1.732-1.738.32 0 .634.087.909.253.633.382 1.418.382 2.049.001.276-.166.59-.253.91-.253.956-.001 1.733.779 1.733 1.737 0 .689-.074 1.38-.219 2.052-.346 1.598-.411 1.945-.421 2.01l-.143 1.216c-.067.561-.567.984-1.165.984z" fill="#ffe777"/></svg>