<svg id="bold" height="512" viewBox="0 0 32 32" width="512" xmlns="http://www.w3.org/2000/svg"><path d="m26 32h-20c-3.314 0-6-2.686-6-6v-20c0-3.314 2.686-6 6-6h20c3.314 0 6 2.686 6 6v20c0 3.314-2.686 6-6 6z" fill="#e3f8fa"/><g fill="#26c6da"><path d="m12.667 12h-1.333c-.368 0-.667-.299-.667-.667s.298-.667.667-.667h1.333c.368 0 .667.299.667.667s-.299.667-.667.667z"/><path d="m12.667 21.333h-1.333c-.368 0-.667-.299-.667-.667s.298-.666.666-.666h1.333c.368 0 .667.299.667.667s-.298.666-.666.666z"/><path d="m16.667 12h-1.333c-.368 0-.667-.299-.667-.667s.298-.667.667-.667h1.333c.368 0 .667.299.667.667s-.299.667-.667.667z"/><path d="m12.667 15h-1.333c-.368 0-.667-.299-.667-.667s.298-.667.667-.667h1.333c.368 0 .667.299.667.667s-.299.667-.667.667z"/><path d="m16.667 15h-1.333c-.368 0-.667-.299-.667-.667s.298-.667.667-.667h1.333c.368 0 .667.299.667.667s-.299.667-.667.667z"/><path d="m12.667 18.333h-1.333c-.368 0-.667-.299-.667-.667s.298-.666.666-.666h1.333c.368 0 .667.299.667.667s-.298.666-.666.666z"/><path d="m18 8h-8c-1.1 0-2 .9-2 2v12c0 1.1.9 2 2 2h6.387c-.133-.253-.227-.533-.26-.827l-.06-.507h-6.067c-.367 0-.667-.3-.667-.667v-11.999c0-.367.3-.667.667-.667h8c.367 0 .667.3.667.667v4.68c.467.04.927.187 1.327.433h.006v-5.113c0-1.1-.9-2-2-2z"/></g><path d="m22.052 24c-.559 0-1.043-.376-1.15-.895l-.374-2.121c-.009-.042-.088-.103-.195-.103s-.186.061-.198.117l-.368 2.092c-.109.534-.593.91-1.152.91-.598 0-1.098-.423-1.165-.984l-.144-1.218c-.008-.063-.074-.41-.42-2.009-.145-.672-.219-1.362-.219-2.051 0-.958.777-1.738 1.732-1.738.32 0 .634.087.909.253.633.382 1.418.382 2.049.001.276-.166.59-.253.91-.253.956-.001 1.733.779 1.733 1.737 0 .689-.074 1.38-.219 2.052-.346 1.598-.411 1.945-.421 2.01l-.143 1.216c-.067.561-.567.984-1.165.984z" fill="#8ce1eb"/></svg>