<svg id="bold" height="512" viewBox="0 0 32 32" width="512" xmlns="http://www.w3.org/2000/svg"><path d="m26 32h-20c-3.314 0-6-2.686-6-6v-20c0-3.314 2.686-6 6-6h20c3.314 0 6 2.686 6 6v20c0 3.314-2.686 6-6 6z" fill="#fff9dd"/><path d="m23.893 15.11v-.09h-.035c-.149-.398-.408-.749-.766-.976-1.317-.84-2.827-.936-4.617-.292l.222.618.003.676c.077 0 .153-.013.225-.039.514-.184.986-.292 1.426-.327.092.925.866 1.653 1.815 1.653.172 0 .34-.026.5-.072v4.405h-.35c-.084-.748-.713-1.333-1.483-1.333s-1.399.585-1.483 1.333h-5.7c-.084-.748-.713-1.333-1.483-1.333s-1.399.585-1.483 1.333h-1.35v-2.684c.748-.084 1.333-.713 1.333-1.483 0-.628-.389-1.165-.938-1.389.934-.551 2-.588 3.346-.104.072.026.155.039.232.039l-.003-.675.222-.618c-1.79-.644-3.301-.548-4.615.29-.562.356-.911.998-.911 1.678v4.947c0 .735.598 1.333 1.333 1.333h13.333c.736 0 1.334-.598 1.334-1.333v-4.947c0-.211-.044-.414-.107-.61z" fill="#ffd200"/><path d="m17.719 18c-.559 0-1.043-.376-1.15-.894l-.374-2.122c-.009-.042-.088-.103-.195-.103s-.186.061-.198.117l-.368 2.092c-.11.534-.594.91-1.153.91-.597 0-1.098-.423-1.164-.984l-.145-1.218c-.008-.064-.075-.411-.42-2.009-.146-.672-.22-1.362-.22-2.051 0-.958.777-1.738 1.732-1.738.32 0 .635.088.91.253.632.382 1.417.382 2.049 0 .276-.165.591-.253.911-.253.955 0 1.732.78 1.732 1.738 0 .689-.074 1.38-.22 2.052-.367 1.695-.414 1.966-.42 2.009l-.145 1.217c-.065.561-.565.984-1.162.984z" fill="#ffe777"/></svg>