<svg id="bold" height="512" viewBox="0 0 32 32" width="512" xmlns="http://www.w3.org/2000/svg"><path d="m26 32h-20c-3.314 0-6-2.686-6-6v-20c0-3.314 2.686-6 6-6h20c3.314 0 6 2.686 6 6v20c0 3.314-2.686 6-6 6z" fill="#f5e6fe"/><path d="m17.719 17.333c-.559 0-1.043-.376-1.15-.895l-.374-2.121c-.009-.042-.088-.103-.195-.103s-.186.061-.198.117l-.368 2.092c-.109.533-.593.909-1.152.909-.598 0-1.098-.423-1.165-.984l-.144-1.218c-.008-.063-.074-.41-.42-2.009-.145-.672-.219-1.362-.219-2.051 0-.958.777-1.738 1.732-1.738.32 0 .634.087.909.253.633.382 1.418.382 2.049.001.276-.166.59-.253.91-.253.955 0 1.732.78 1.732 1.738 0 .689-.074 1.38-.219 2.052-.346 1.598-.411 1.945-.421 2.01l-.143 1.216c-.066.561-.567.984-1.164.984z" fill="#d9a4fc"/><path d="m22.167 22.667h-12.334c-1.011 0-1.833-.823-1.833-1.834v-5.667c0-.643.523-1.166 1.167-1.166h.679c.874 0 1.631.624 1.8 1.484.224 1.134.35 1.938.35 1.938.129 1.098 1.072 1.912 2.195 1.912.544 0 1.066-.198 1.473-.557.188-.167.472-.168.661-.001.41.36.936.558 1.484.558 1.123 0 2.066-.813 2.192-1.891.003-.018.124-.806.352-1.959.17-.86.927-1.484 1.8-1.484h.68c.644 0 1.167.523 1.167 1.167v5.667c0 1.01-.822 1.833-1.833 1.833z" fill="#be63f9"/></svg>