<svg id="bold" height="512" viewBox="0 0 32 32" width="512" xmlns="http://www.w3.org/2000/svg"><path d="m26 32h-20c-3.314 0-6-2.686-6-6v-20c0-3.314 2.686-6 6-6h20c3.314 0 6 2.686 6 6v20c0 3.314-2.686 6-6 6z" fill="#ffe6e2"/><path d="m18.743 24c-.033 0-.066-.001-.099-.004-5.658-.438-10.232-5.01-10.641-10.635-.025-.349.095-.695.329-.949.234-.253.552-.394.897-.396l2.3-.016c.573 0 1.067.384 1.205.934l.48 1.907c.122.484-.059.99-.46 1.288l-.829.618c.766 1.362 1.911 2.513 3.282 3.299l.644-.852c.299-.396.804-.578 1.29-.455l1.92.477c.552.136.939.628.939 1.197v2.353c0 .344-.139.663-.393.898-.233.216-.544.336-.864.336z" fill="#fc573b"/><path d="m22.052 16c-.559 0-1.043-.376-1.15-.895l-.374-2.121c-.009-.042-.088-.103-.195-.103s-.186.061-.198.117l-.368 2.092c-.109.534-.593.91-1.152.91-.598 0-1.098-.423-1.165-.984l-.144-1.218c-.008-.063-.074-.41-.42-2.008-.145-.672-.219-1.362-.219-2.051 0-.959.777-1.739 1.732-1.739.321 0 .635.088.91.254.632.38 1.417.381 2.048-.001.275-.165.59-.253.911-.253.955 0 1.732.78 1.732 1.738 0 .689-.074 1.38-.219 2.052-.346 1.599-.412 1.945-.421 2.009l-.143 1.216c-.067.562-.567.985-1.165.985z" fill="#fd907e"/></svg>