<svg id="bold" height="512" viewBox="0 0 32 32" width="512" xmlns="http://www.w3.org/2000/svg"><path d="m26 32h-20c-3.314 0-6-2.686-6-6v-20c0-3.314 2.686-6 6-6h20c3.314 0 6 2.686 6 6v20c0 3.314-2.686 6-6 6z" fill="#fff9dd"/><path d="m18.171 22c-.734 0-1.361-.55-1.491-1.309l-.471-3.227c-.02-.116-.111-.216-.209-.216s-.189.1-.212.233l-.465 3.193c-.133.776-.76 1.326-1.494 1.326-.779 0-1.427-.614-1.507-1.429l-.182-1.856c-.006-.059-.063-.457-.533-3.079-.181-1.012-.273-2.049-.273-3.082 0-1.408.997-2.553 2.223-2.553.432 0 .853.14 1.216.404.768.559 1.687.559 2.456 0 .362-.265.782-.405 1.215-.405 1.226 0 2.223 1.146 2.223 2.553 0 1.034-.092 2.071-.273 3.083-.47 2.622-.527 3.02-.533 3.079l-.182 1.856c-.081.815-.729 1.429-1.508 1.429zm-2.171-6.085c.75 0 1.392.563 1.525 1.34l.471 3.227c.033.188.326.244.354-.041l.182-1.856c.007-.073.029-.295.547-3.184.168-.934.253-1.892.253-2.847 0-.662-.408-1.221-.89-1.221-.148 0-.297.051-.43.148-1.223.889-2.803.89-4.025 0-.134-.097-.283-.149-.431-.149-.482 0-.89.559-.89 1.22 0 .955.085 1.913.253 2.847.518 2.89.54 3.112.547 3.185l.182 1.856c.028.285.319.245.357.024l.465-3.193c.138-.792.78-1.356 1.53-1.356zm3.015 4.591h.007z" fill="#ffd200"/><g fill="#ffe777"><path d="m9.847 20.665c-.819 0-1.364-.217-1.653-.654-.135-.204-.271-.55-.143-1.034.435-1.64 3.805-3.839 6.559-5.223 2.887-1.452 8.071-3.456 9.194-1.768.507.755.052 1.767-1.351 3.005-.276.243-.698.217-.941-.059s-.217-.697.059-.941c.776-.685 1.029-1.117 1.083-1.288-.553-.262-3.409.213-7.446 2.243-3.739 1.879-5.709 3.733-5.866 4.342.131.036.563.101 1.443-.049.366-.061.708.182.77.545s-.182.707-.545.77c-.435.074-.822.111-1.163.111z"/><path d="m22.153 20.665c-.34 0-.728-.037-1.164-.112-.363-.062-.607-.407-.545-.77s.405-.606.77-.545c.844.145 1.276.091 1.44.038-.178-.621-2.147-2.463-5.862-4.33-3.982-2.001-6.812-2.492-7.441-2.23.063.184.337.63 1.144 1.327.279.241.31.661.069.94s-.661.31-.94.069c-1.462-1.261-1.941-2.293-1.426-3.065 1.121-1.689 6.307.317 9.194 1.768 2.754 1.384 6.124 3.582 6.559 5.223.128.484-.007.83-.144 1.035-.291.436-.835.652-1.654.652z"/></g></svg>