<svg id="bold" height="512" viewBox="0 0 32 32" width="512" xmlns="http://www.w3.org/2000/svg"><path d="m26 32h-20c-3.314 0-6-2.686-6-6v-20c0-3.314 2.686-6 6-6h20c3.314 0 6 2.686 6 6v20c0 3.314-2.686 6-6 6z" fill="#fff9dd"/><path d="m20.719 16c-.559 0-1.043-.376-1.15-.895l-.374-2.121c-.009-.042-.088-.103-.195-.103s-.186.061-.198.117l-.368 2.092c-.11.534-.593.91-1.153.91-.598 0-1.098-.423-1.165-.984l-.144-1.218c-.008-.063-.074-.41-.42-2.009-.145-.672-.219-1.362-.219-2.051 0-.958.778-1.738 1.733-1.738.32 0 .634.087.909.253.633.382 1.418.382 2.049.001.276-.167.591-.254.91-.254.955 0 1.732.78 1.732 1.738 0 .689-.074 1.38-.219 2.052-.346 1.598-.411 1.945-.421 2.01l-.143 1.216c-.066.561-.567.984-1.164.984z" fill="#ffe777"/><g fill="#ffd200"><path d="m8.328 16.001c-.182.004-.328.152-.328.334v6.165c0 .092.075.167.167.167h1.581c.149 0 .28-.099.321-.242l1.475-5.199c.095-.336-.085-.689-.413-.808-.604-.221-1.531-.438-2.803-.417z"/><path d="m22.667 19.667c-1.333 0-4 1.688-5.333 1.688s-2.834-1.022-2.834-1.022 1.796.333 2.833.333 1.333-.354 1.333-.833c0-1.167-1.982-1.348-2.984-1.5-.984-.548-1.495-.981-3.125-1.119-.01.095-.025.189-.051.284l-1.339 4.72c1.517.689 4.129 1.782 5.5 1.782 2 0 7.333-2.667 7.333-3.333 0-.667-.667-1-1.333-1z"/></g></svg>