<svg id="bold" height="512" viewBox="0 0 32 32" width="512" xmlns="http://www.w3.org/2000/svg"><path d="m26 32h-20c-3.314 0-6-2.686-6-6v-20c0-3.314 2.686-6 6-6h20c3.314 0 6 2.686 6 6v20c0 3.314-2.686 6-6 6z" fill="#f5e6fe"/><path d="m20.719 20c-.559 0-1.043-.376-1.15-.895l-.374-2.121c-.009-.042-.088-.103-.195-.103s-.186.061-.198.117l-.368 2.092c-.11.534-.593.91-1.153.91-.598 0-1.098-.423-1.165-.984l-.144-1.218c-.008-.063-.074-.41-.42-2.009-.145-.672-.219-1.362-.219-2.051 0-.958.777-1.738 1.732-1.738.32 0 .634.087.909.253.633.382 1.418.382 2.049.001.277-.167.592-.254.911-.254.955 0 1.732.78 1.732 1.738 0 .689-.074 1.38-.219 2.052-.346 1.598-.411 1.945-.421 2.01l-.143 1.216c-.066.561-.567.984-1.164.984z" fill="#d9a4fc"/><path d="m19.333 11.113c.213-.127.433-.227.667-.3v-.813c0-1.1-.9-2-2-2h-6.667c-1.1 0-2 .9-2 2v12c0 1.1.9 2 2 2h6.667c1.1 0 2-.9 2-2v-.767c-.38-.113-.72-.313-1.007-.573-.1.093-.213.18-.327.253v1.087c0 .367-.3.667-.667.667h-6.667c-.367 0-.667-.3-.667-.667v-12c0-.367.3-.667.667-.667h.333c.367 0 .667.3.667.667s.3.667.667.667h3.333c.368 0 .668-.3.668-.667s.3-.667.667-.667h.333c.367 0 .667.3.667.667v1.113c.213.12.46.12.666 0z" fill="#be63f9"/></svg>