<svg id="bold" height="512" viewBox="0 0 32 32" width="512" xmlns="http://www.w3.org/2000/svg"><path d="m26 32h-20c-3.314 0-6-2.686-6-6v-20c0-3.314 2.686-6 6-6h20c3.314 0 6 2.686 6 6v20c0 3.314-2.686 6-6 6z" fill="#ffe6e2"/><path d="m21.385 20c-.559 0-1.043-.376-1.15-.895l-.374-2.121c-.009-.042-.088-.103-.195-.103s-.186.061-.198.117l-.368 2.093c-.109.533-.593.909-1.152.909-.598 0-1.098-.423-1.165-.984l-.144-1.218c-.008-.063-.074-.41-.42-2.009-.145-.671-.219-1.362-.219-2.051 0-.958.777-1.738 1.732-1.738.32 0 .634.087.909.253.633.382 1.418.382 2.049.001.276-.166.59-.253.91-.253.955 0 1.732.78 1.732 1.738 0 .689-.074 1.38-.219 2.052-.346 1.598-.411 1.945-.421 2.01l-.143 1.216c-.065.56-.566.983-1.164.983z" fill="#fd907e"/><path d="m15.72 20h-5.053c-.367 0-.667-.3-.667-.667v-6.667c0-.366.3-.666.667-.666h4.547c.453-.673 1.173-1.147 2.007-1.287l-.16-1.66c-.061-.6-.561-1.053-1.161-1.053h-4.467c-.6 0-1.1.453-1.16 1.053l-.167 1.707c-.827.24-1.44 1-1.44 1.907v6.667c0 .907.613 1.667 1.44 1.907l.167 1.707c.06.6.56 1.053 1.16 1.053h4.467c.6 0 1.1-.453 1.16-1.053l.167-1.707c.007 0 .007 0 .013-.007-.66-.187-1.213-.634-1.52-1.234z" fill="#fc573b"/></svg>