<svg id="bold" height="512" viewBox="0 0 32 32" width="512" xmlns="http://www.w3.org/2000/svg"><path d="m26 32h-20c-3.314 0-6-2.686-6-6v-20c0-3.314 2.686-6 6-6h20c3.314 0 6 2.686 6 6v20c0 3.314-2.686 6-6 6z" fill="#f5e6fe"/><path d="m17.719 21.667c-.559 0-1.043-.376-1.15-.895l-.374-2.121c-.009-.042-.088-.103-.195-.103s-.186.061-.198.117l-.368 2.092c-.109.533-.593.909-1.152.909-.598 0-1.098-.423-1.165-.984l-.144-1.218c-.008-.063-.074-.41-.42-2.009-.145-.672-.219-1.362-.219-2.051 0-.958.777-1.738 1.732-1.738.32 0 .634.087.909.253.633.382 1.418.382 2.049.001.276-.166.59-.253.91-.253.955 0 1.732.78 1.732 1.738 0 .689-.074 1.38-.219 2.052-.346 1.598-.411 1.945-.421 2.01l-.143 1.216c-.066.561-.567.984-1.164.984z" fill="#d9a4fc"/><path d="m22 10.333h-2.667v-.666c0-.733-.6-1.333-1.333-1.333h-4c-.733 0-1.333.6-1.333 1.333v.667h-2.667c-1.1 0-2 .9-2 2v7.333c0 1.1.9 2 2 2h2.053c-.133-.253-.227-.533-.26-.827l-.06-.507h-1.733c-.367 0-.667-.3-.667-.667v-7.333c0-.367.3-.667.667-.667h12c.367 0 .667.3.667.667v7.333c0 .367-.3.667-.667.667h-1.733l-.06.507c-.033.293-.127.573-.26.827h2.053c1.1 0 2-.9 2-2v-7.333c0-1.101-.9-2.001-2-2.001zm-4 0h-4v-.666h4z" fill="#be63f9"/></svg>