<svg id="bold" height="512" viewBox="0 0 32 32" width="512" xmlns="http://www.w3.org/2000/svg"><path d="m26 32h-20c-3.314 0-6-2.686-6-6v-20c0-3.314 2.686-6 6-6h20c3.314 0 6 2.686 6 6v20c0 3.314-2.686 6-6 6z" fill="#e3f8fa"/><path d="m17.719 20c-.559 0-1.043-.376-1.15-.895l-.374-2.121c-.009-.042-.088-.103-.195-.103s-.186.061-.198.117l-.368 2.092c-.11.534-.594.91-1.153.91-.598 0-1.098-.423-1.165-.984l-.144-1.218c-.008-.063-.074-.41-.42-2.009-.145-.672-.219-1.362-.219-2.051 0-.958.777-1.738 1.732-1.738.32 0 .634.087.909.253.633.382 1.418.382 2.049.001.277-.167.592-.254.911-.254.955 0 1.732.78 1.732 1.738 0 .689-.074 1.38-.219 2.052-.346 1.598-.411 1.945-.421 2.01l-.143 1.216c-.066.561-.567.984-1.164.984z" fill="#8ce1eb"/><path d="m23.333 15.333h-.367c-.316-3.328-2.971-5.983-6.3-6.3v-.366c.001-.369-.298-.667-.666-.667s-.667.299-.667.667v.367c-3.328.316-5.983 2.971-6.3 6.3h-.366c-.369-.001-.667.298-.667.666s.299.667.667.667h.367c.316 3.328 2.971 5.983 6.3 6.3v.367c-.001.368.298.666.666.666s.667-.299.667-.667v-.367c3.328-.316 5.983-2.971 6.3-6.3h.367c.368.001.666-.298.666-.666s-.298-.667-.667-.667zm-6.787 6.306c-.119-.18-.314-.306-.546-.306s-.426.126-.546.306c-2.69-.258-4.835-2.404-5.093-5.093.18-.119.306-.314.306-.546s-.126-.426-.306-.546c.258-2.69 2.404-4.835 5.093-5.093.119.18.314.306.546.306s.426-.126.546-.306c2.69.258 4.835 2.404 5.093 5.093-.18.119-.306.314-.306.546s.126.426.306.546c-.258 2.689-2.404 4.835-5.093 5.093z" fill="#26c6da"/></svg>