<svg id="bold" height="512" viewBox="0 0 32 32" width="512" xmlns="http://www.w3.org/2000/svg"><path d="m26 32h-20c-3.314 0-6-2.686-6-6v-20c0-3.314 2.686-6 6-6h20c3.314 0 6 2.686 6 6v20c0 3.314-2.686 6-6 6z" fill="#fff9dd"/><path d="m22.052 24c-.559 0-1.043-.376-1.15-.895l-.374-2.121c-.009-.042-.088-.103-.195-.103s-.186.061-.198.117l-.368 2.092c-.109.534-.593.91-1.152.91-.598 0-1.098-.423-1.165-.984l-.144-1.218c-.008-.063-.074-.41-.42-2.009-.145-.672-.219-1.362-.219-2.051 0-.958.777-1.738 1.732-1.738.32 0 .634.087.909.253.633.382 1.418.382 2.049.001.276-.166.59-.253.91-.253.956-.001 1.733.779 1.733 1.737 0 .689-.074 1.38-.219 2.052-.346 1.598-.411 1.945-.421 2.01l-.143 1.216c-.066.561-.567.984-1.165.984z" fill="#ffe777"/><path d="m19.24 13.16c-.053-.153-.147-.313-.273-.447v-1.347c0-1.1-.407-1.573-.8-1.827-.267-.726-1.253-1.539-2.833-1.539-2.053 0-3.6 2.04-3.6 3.367 0 .513-.02.927-.04 1.233 0 .033 0 .073-.007.107-.14.14-.233.327-.28.513-.013.047-.02.107-.02.16 0 .533.28 1.26.333 1.393.053.127.14.227.24.3v.033c0 .713.547 1.367.913 1.72-.04.587-.2 1.007-.393 1.093l-2.553.847c-.78.26-1.36.893-1.56 1.693l-.347 1.381c-.047.2-.007.407.12.573.127.16.32.253.527.253h7.4l-.087-.713s-.02-.113-.127-.62h-6.333l.14-.553c.087-.353.347-.633.693-.747l2.593-.867c.82-.34 1.267-1.273 1.267-2.627 0-.2-.087-.387-.24-.513-.4-.333-.68-.753-.68-.92 0-.5-.187-.82-.4-1.013-.053-.147-.107-.327-.14-.48.153-.12.253-.307.253-.52 0-.107.013-.247.02-.427.02-.32.04-.76.04-1.3 0-.687 1.027-2.033 2.267-2.033 1.08 0 1.507.5 1.58.653.02.28.18.493.487.647.087.047.233.12.233.733v1.727c0 .22.107.42.273.54-.033.147-.08.313-.133.46-.173.153-.327.393-.38.747.313-.113.653-.173 1.007-.173.187 0 .38.02.567.053.087-.213.313-.853.313-1.34 0-.073-.013-.147-.04-.22z" fill="#ffd200"/></svg>