<svg id="bold" height="512" viewBox="0 0 32 32" width="512" xmlns="http://www.w3.org/2000/svg"><path d="m26 32h-20c-3.314 0-6-2.686-6-6v-20c0-3.314 2.686-6 6-6h20c3.314 0 6 2.686 6 6v20c0 3.314-2.686 6-6 6z" fill="#f5e6fe"/><path d="m23.333 15.333h-.667v-.667c.001-.368-.297-.666-.666-.666-.368 0-.667.299-.667.667v.667h-.667c-.368-.001-.666.298-.666.666s.298.667.667.667h.667v.667c-.001.368.298.666.666.666s.667-.299.667-.667v-.667h.667c.368.001.666-.298.666-.666s-.298-.667-.667-.667z" fill="#d9a4fc"/><path d="m18 9.333h-.667v-.666c0-.369-.298-.667-.666-.667s-.667.298-.667.667v.667h-.667c-.368 0-.667.299-.667.667s.298.667.667.667h.667v.667c0 .366.298.665.667.665s.667-.299.667-.667v-.667h.666c.368 0 .667-.299.667-.667 0-.367-.298-.666-.667-.666z" fill="#d9a4fc"/><path d="m18.567 11.953c-.147.447-.44.82-.827 1.067.167.18.26.42.26.68 0 1.06-.16 2.107-.48 3.12l-.407 1.287c-.233.747-.393 1.52-.473 2.293l-.213 1.987c-.013.16-.14.28-.293.28-.14 0-.267-.107-.293-.253l-.533-2.9c-.147-.8-.833-1.38-1.64-1.38s-1.493.58-1.64 1.38l-.533 2.893c-.027.153-.153.26-.293.26-.153 0-.28-.12-.293-.28l-.216-1.987c-.08-.773-.24-1.547-.473-2.293l-.407-1.287c-.32-1.013-.48-2.06-.48-3.12 0-.567.447-1.033 1.04-1.033s1.207.167 1.887.5c.92.46 1.893.46 2.813 0 .153-.073.3-.14.447-.2-.36-.253-.64-.62-.767-1.053-.026-.007-.053-.014-.073-.034-.067.027-.133.06-.2.093-.553.28-1.073.28-1.627 0-.867-.427-1.673-.64-2.52-.64-1.286 0-2.333 1.06-2.333 2.367 0 1.193.18 2.38.54 3.52l.407 1.287c.207.667.353 1.347.42 2.033l.213 1.987c.087.84.787 1.473 1.62 1.473.787 0 1.46-.567 1.607-1.347l.527-2.9c.033-.167.173-.287.333-.287s.3.12.333.287l.527 2.9c.147.78.82 1.347 1.607 1.347.413 0 .8-.16 1.093-.42.287-.267.48-.633.527-1.053l.213-1.987c.067-.687.213-1.367.42-2.033l.407-1.287c.36-1.14.54-2.327.54-3.52-.001-.693-.294-1.313-.767-1.747z" fill="#be63f9"/></svg>