<svg id="bold" height="512" viewBox="0 0 32 32" width="512" xmlns="http://www.w3.org/2000/svg"><path d="m26 32h-20c-3.314 0-6-2.686-6-6v-20c0-3.314 2.686-6 6-6h20c3.314 0 6 2.686 6 6v20c0 3.314-2.686 6-6 6z" fill="#e3f8fa"/><g fill="#8ce1eb"><path d="m9.833 18.373c-1.011 0-1.833-.822-1.833-1.833s.822-1.833 1.833-1.833c.276 0 .5.224.5.5v2.667c0 .275-.224.499-.5.499z"/><path d="m22.167 18.373c-.276 0-.5-.224-.5-.5v-2.667c0-.276.224-.5.5-.5 1.011 0 1.833.822 1.833 1.833 0 1.012-.822 1.834-1.833 1.834z"/><path d="m16 21.333c-.735 0-1.333-.598-1.333-1.333s.598-1.333 1.333-1.333 1.333.598 1.333 1.333-.598 1.333-1.333 1.333z"/></g><path d="m22.667 16.854v-3.411c0-3.74-3.456-5.443-6.667-5.443s-6.667 1.703-6.667 5.443v3.411c0 1.332.303 2.414 1.059 3.761 1.383 2.246 3.269 3.385 5.608 3.385.897 0 1.734-.182 2.501-.521.373.324.857.521 1.391.521 1.172 0 2.126-.957 2.126-2.133 0-.464-.157-.893-.413-1.246.007-.012.015-.025.017-.028.742-1.324 1.045-2.407 1.045-3.739zm-2.775 5.813c-.406 0-.753-.319-.789-.726-.033-.367-.359-.633-.723-.605-.367.033-.637.357-.605.723.008.092.03.178.049.266-.56.226-1.159.342-1.823.342-1.87 0-3.333-.9-4.459-2.727-.525-.936-.875-1.819-.875-3.085v-2.188h2.685c1.724 0 3.3-.813 4.292-2.171.79 1.168 2.066 1.944 3.499 2.087l.19.019v2.252c0 1.208-.324 2.068-.822 2.977-.149-.046-.302-.081-.463-.092-.369-.021-.687.249-.714.616s.249.687.616.714c.411.03.734.38.734.798.001.441-.355.8-.792.8z" fill="#26c6da"/><path d="m13.854 16.146c-.195-.195-.512-.195-.707 0l-.147.147-.146-.146c-.195-.195-.512-.195-.707 0s-.195.512 0 .707l.146.146-.146.146c-.195.195-.195.512 0 .707.097.098.225.147.353.147s.256-.049.354-.146l.146-.147.146.146c.098.098.226.147.354.147s.256-.049.354-.146c.195-.195.195-.512 0-.707l-.147-.147.146-.146c.196-.196.196-.512.001-.708z" fill="#8ce1eb"/><path d="m19.707 17 .146-.146c.195-.195.195-.512 0-.707s-.512-.195-.707 0l-.146.146-.146-.146c-.195-.195-.512-.195-.707 0s-.195.512 0 .707l.146.146-.146.146c-.195.195-.195.512 0 .707.097.098.225.147.353.147s.256-.049.354-.146l.146-.147.146.146c.098.098.226.147.354.147s.256-.049.354-.146c.195-.195.195-.512 0-.707z" fill="#8ce1eb"/></svg>