<svg id="bold" height="512" viewBox="0 0 32 32" width="512" xmlns="http://www.w3.org/2000/svg"><path d="m26 32h-20c-3.314 0-6-2.686-6-6v-20c0-3.314 2.686-6 6-6h20c3.314 0 6 2.686 6 6v20c0 3.314-2.686 6-6 6z" fill="#ffe6e2"/><g fill="#fd907e"><path d="m22.167 24h-12.334c-1.011 0-1.833-.822-1.833-1.833v-5.667c0-.643.523-1.167 1.167-1.167h1.225c.55 0 1.031.393 1.143.933.289 1.398.46 2.477.462 2.488.129 1.098 1.072 1.912 2.195 1.912.544 0 1.066-.198 1.473-.557.188-.167.472-.168.661-.001.41.36.936.558 1.484.558 1.123 0 2.066-.813 2.192-1.891.009-.06.167-1.082.464-2.51.111-.54.592-.933 1.143-.933h1.226c.643 0 1.167.523 1.167 1.167v5.667c-.002 1.012-.824 1.834-1.835 1.834z"/><path d="m9.333 10c-.171 0-.341-.065-.471-.195l-.667-.667c-.26-.26-.26-.682 0-.943s.682-.26.943 0l.667.667c.26.26.26.682 0 .943-.131.13-.301.195-.472.195z"/><path d="m12 10c-.368 0-.667-.299-.667-.667v-.666c0-.369.298-.667.667-.667s.667.299.667.667v.667c0 .367-.299.666-.667.666z"/><path d="m9.333 12.667h-.666c-.369 0-.667-.299-.667-.667s.298-.667.667-.667h.667c.368 0 .666.299.666.667s-.298.667-.667.667z"/></g><path d="m17.85 17.892c-.072 0-.144-.006-.216-.019-.551-.098-.962-.552-.977-1.081l.001-2.154c-.001-.043-.069-.116-.174-.135-.107-.019-.194.028-.215.081l-.726 1.996c-.201.506-.735.794-1.294.695-.588-.104-1.008-.607-.976-1.171l.07-1.225c.004-.095-.014-.767-.064-2.051-.026-.689.021-1.382.14-2.058.167-.944 1.066-1.575 2.008-1.411.316.056.61.196.852.407.555.485 1.327.62 2.018.356.3-.117.626-.148.94-.091.94.166 1.57 1.068 1.404 2.012-.12.679-.313 1.346-.572 1.983-.656 1.604-.749 1.863-.762 1.905l-.354 1.174c-.144.475-.597.787-1.103.787z" fill="#fc573b"/></svg>