<svg id="bold" height="512" viewBox="0 0 32 32" width="512" xmlns="http://www.w3.org/2000/svg"><path d="m26 32h-20c-3.314 0-6-2.686-6-6v-20c0-3.314 2.686-6 6-6h20c3.314 0 6 2.686 6 6v20c0 3.314-2.686 6-6 6z" fill="#f5e6fe"/><path d="m9.677 24.003c-.301 0-.601-.115-.826-.34l-.508-.508c-.411-.411-.456-1.07-.103-1.533l1.714-2.243c.087-.115.22-.186.364-.196.143-.008.285.044.387.146l1.973 1.973c.102.102.155.243.145.387-.009.144-.081.277-.195.364l-2.244 1.713c-.21.159-.459.237-.707.237z" fill="#d9a4fc"/><g fill="#be63f9"><path d="m13.573 22.52c-.473 0-.943-.179-1.298-.534l-2.257-2.257c-.673-.672-.715-1.764-.098-2.487l7.441-8.714c.55-.638 1.607-.678 2.2-.085l4 4c.283.284.439.661.439 1.061 0 .438-.191.853-.523 1.138l-8.715 7.442c-.341.292-.766.436-1.189.436zm4.927-13.516c-.146 0-.285.064-.38.175l-7.439 8.713c-.281.328-.261.825.045 1.131l2.257 2.257c.307.306.803.325 1.131.045l8.714-7.441c.109-.095.172-.234.172-.38 0-.133-.052-.259-.146-.354l-4-4c-.095-.094-.22-.146-.354-.146z"/><path d="m12.834 15.676h1.333v5.657h-1.333z" transform="matrix(.707 -.707 .707 .707 -9.131 14.966)"/><path d="m18.667 9.136h1.333v7.071h-1.333z" transform="matrix(.707 -.707 .707 .707 -3.297 17.382)"/></g></svg>