<svg id="bold" height="512" viewBox="0 0 32 32" width="512" xmlns="http://www.w3.org/2000/svg"><path d="m26 32h-20c-3.314 0-6-2.686-6-6v-20c0-3.314 2.686-6 6-6h20c3.314 0 6 2.686 6 6v20c0 3.314-2.686 6-6 6z" fill="#e3f8fa"/><path d="m19.333 13.333c-.171 0-.341-.065-.471-.195-.26-.26-.26-.682 0-.943l1.081-1.081c.252-.252.391-.587.391-.943v-.838c-.001-.735.597-1.333 1.333-1.333h1.667c.368 0 .666.298.666.667s-.299.667-.667.667h-1.667v.838c0 .712-.277 1.382-.781 1.886l-1.081 1.081c-.13.129-.3.194-.471.194z" fill="#26c6da"/><path d="m13.899 15.98-5.46 5.46c-.283.283-.439.659-.439 1.06 0 .827.673 1.5 1.5 1.5.401 0 .777-.156 1.061-.439l5.46-5.46z" fill="#8ce1eb"/><path d="m18.5 12c-.401 0-.777.156-1.061.439l-2.126 2.126 2.121 2.121 2.126-2.126c.284-.283.44-.659.44-1.06 0-.827-.673-1.5-1.5-1.5z" fill="#26c6da"/></svg>