<svg id="bold" height="512" viewBox="0 0 32 32" width="512" xmlns="http://www.w3.org/2000/svg"><path d="m26 32h-20c-3.314 0-6-2.686-6-6v-20c0-3.314 2.686-6 6-6h20c3.314 0 6 2.686 6 6v20c0 3.314-2.686 6-6 6z" fill="#f5e6fe"/><path d="m8.666 17.341c-.287 0-.551-.187-.638-.476-.106-.353.094-.724.447-.83l1.667-.5c.353-.104.724.094.83.447s-.094.724-.447.83l-1.667.5c-.064.02-.128.029-.192.029z" fill="#be63f9"/><path d="m12.189 24.008c-.206 0-.417-.054-.61-.165-.484-.279-.715-.847-.549-1.349l.738-2.024c.013-.04-.025-.133-.118-.187-.092-.053-.191-.04-.23.003l-1.364 1.628c-.363.406-.969.49-1.453.211-.517-.299-.739-.915-.516-1.434l.484-1.127c.016-.038.11-.294.641-1.95.211-.656.492-1.29.836-1.886.232-.402.606-.689 1.053-.811.447-.121.915-.061 1.317.172.277.16.506.393.661.674.357.645 1.041 1.054 1.775 1.024.33 0 .637.075.914.236.401.231.688.606.806 1.054.119.448.057.916-.175 1.317-.344.596-.753 1.157-1.216 1.667-1.137 1.254-1.335 1.488-1.368 1.53l-.733.982c-.214.283-.547.435-.893.435z" fill="#d9a4fc"/><path d="m20.719 21.341c-.559 0-1.043-.376-1.15-.894l-.374-2.122c-.009-.042-.088-.103-.195-.103s-.186.061-.198.117l-.368 2.092c-.11.533-.594.909-1.153.909-.597 0-1.098-.423-1.164-.984l-.145-1.218c-.008-.064-.075-.411-.42-2.009-.146-.672-.22-1.362-.22-2.051 0-.958.777-1.738 1.732-1.738.32 0 .635.088.91.253.632.382 1.417.382 2.049 0 .275-.165.589-.253.91-.253.955 0 1.732.78 1.732 1.738 0 .689-.074 1.38-.22 2.052-.367 1.695-.414 1.966-.42 2.009l-.145 1.217c-.064.562-.564.985-1.161.985z" fill="#be63f9"/><path d="m23.333 17.341c-.07 0-.141-.011-.211-.035l-1-.333c-.349-.117-.538-.494-.422-.843s.493-.538.843-.422l1 .333c.349.117.538.494.422.843-.092.281-.352.457-.632.457z" fill="#be63f9"/><g fill="#d9a4fc"><path d="m10.849 11.737c-.097 0-.196-.021-.289-.066l-.849-.409c-.332-.16-.471-.558-.311-.89s.558-.471.89-.311l.849.409c.332.16.471.558.311.89-.115.238-.353.377-.601.377z"/><path d="m15.366 11.024c-.097 0-.196-.021-.289-.066-.332-.16-.471-.558-.311-.89l.409-.849c.16-.332.559-.47.89-.311.332.16.471.558.311.89l-.409.849c-.115.238-.353.377-.601.377z"/><path d="m12.887 10.335c-.304 0-.579-.209-.649-.518l-.22-.963c-.082-.359.142-.716.501-.798.359-.083.716.143.798.501l.22.963c.082.359-.142.716-.501.798-.049.011-.099.017-.149.017z"/></g></svg>