<svg id="bold" height="512" viewBox="0 0 32 32" width="512" xmlns="http://www.w3.org/2000/svg"><path d="m26 32h-20c-3.314 0-6-2.686-6-6v-20c0-3.314 2.686-6 6-6h20c3.314 0 6 2.686 6 6v20c0 3.314-2.686 6-6 6z" fill="#ffe6e2"/><g fill="#fd907e"><path d="m23.333 15.333h-2.911c-1.072 0-2.097-.333-2.965-.964-1.276-.927-3.003-.946-4.298-.045l-.153.106c-.849.591-1.844.903-2.879.903h-1.46c-.369 0-.667-.298-.667-.666s.298-.667.667-.667h1.462c.76 0 1.493-.229 2.117-.664l.153-.106c1.761-1.225 4.109-1.2 5.844.062.637.463 1.391.708 2.18.708h2.911c.368 0 .666.298.666.667s-.298.666-.667.666z"/><path d="m15.667 10.333c-.368 0-.667-.299-.667-.667v-1c0-.368.298-.666.667-.666.368 0 .667.299.667.667v1c-.001.368-.299.666-.667.666z"/><path d="m18.667 10.667c-.171 0-.341-.065-.471-.195-.26-.26-.26-.682 0-.943l.667-.667c.26-.26.682-.26.943 0s.26.682 0 .943l-.667.667c-.131.13-.302.195-.472.195z"/><path d="m12.667 10.667c-.171 0-.341-.065-.471-.195l-.667-.667c-.26-.26-.26-.682 0-.943s.682-.26.943 0l.667.667c.26.26.26.682 0 .943-.131.13-.302.195-.472.195z"/></g><path d="m14.302 24c-.303 0-.612-.121-.848-.357-.395-.395-.471-1.003-.181-1.445l1.236-1.764c.023-.036.01-.135-.065-.21-.076-.076-.175-.089-.223-.057l-1.74 1.219c-.455.299-1.062.223-1.457-.173-.423-.423-.477-1.076-.128-1.519l.759-.964c.054-.071.379-.559 1.124-1.717.372-.578.808-1.118 1.295-1.605.678-.677 1.779-.679 2.454-.004.227.228.388.512.464.823.178.715.733 1.271 1.449 1.448.31.076.595.237.822.464.675.676.674 1.777-.004 2.454-.487.487-1.028.923-1.606 1.296-1.157.745-1.646 1.069-1.717 1.124l-.963.759c-.195.153-.432.228-.671.228z" fill="#fc573b"/></svg>