<svg id="effect" height="512" viewBox="0 0 36 36" width="512" xmlns="http://www.w3.org/2000/svg"><path d="m8.377 4.167c6.917 0 11.667-3.583 15-3.583s10.333 1.916 10.333 17.249-9.417 17.583-13.083 17.583c-17.167.001-24.5-31.249-12.25-31.249z" fill="#efefef"/><path d="m29.5 9.95v1.05c-.68-.52-1.7-.7-2.63-.23-.87.44-1.37 1.39-1.37 2.37v-.14c0-.69-.28-1.32-.73-1.77s-1.08-.73-1.77-.73c-1.38 0-2.5 1.12-2.5 2.5 0-.69-.28-1.32-.73-1.77s-1.08-.73-1.77-.73c-1.38 0-2.5 1.12-2.5 2.5 0-.69-.28-1.32-.73-1.77s-1.08-.73-1.77-.73c-1.38 0-2.5 1.12-2.5 2.5 0-.69-.28-1.32-.73-1.77s-1.08-.73-1.77-.73c-.56 0-1.09.19-1.5.5v-1.05c0-.86.55-1.65 1.38-1.9 6.75-2.07 13.49-2.07 20.24 0 .83.25 1.38 1.04 1.38 1.9z" fill="#2fdf84"/><g fill="#f3f3f1"><path d="m20.5 13v2.5h-4c-.55 0-1-.45-1-1v-1.5c0-1.38 1.12-2.5 2.5-2.5.69 0 1.32.28 1.77.73s.73 1.08.73 1.77z"/><path d="m29.5 11v3.5c0 .55-.45 1-1 1h-3v-2.36c0-.98.5-1.93 1.37-2.37.93-.47 1.95-.29 2.63.23z"/><path d="m14.5 22.5h-3c-.552 0-1-.448-1-1v-1.5c0-1.381 1.119-2.5 2.5-2.5 1.381 0 2.5 1.119 2.5 2.5v1.5c0 .552-.448 1-1 1z"/><path d="m10.5 13v1.5c0 .55-.45 1-1 1h-2c-.55 0-1-.45-1-1v-3.5c.41-.31.94-.5 1.5-.5.69 0 1.32.28 1.77.73s.73 1.08.73 1.77z"/><path d="m25.5 13v2.5h-4c-.55 0-1-.45-1-1v-1.5c0-1.38 1.12-2.5 2.5-2.5.69 0 1.32.28 1.77.73s.73 1.08.73 1.77z"/></g><path d="m19 6.52c-3.04.09-6.08.6-9.12 1.53-.83.25-1.38 1.04-1.38 1.9v.6c-.16-.03-.33-.05-.5-.05-.56 0-1.09.19-1.5.5v-1.05c0-.86.55-1.65 1.38-1.9 3.71-1.14 7.42-1.65 11.12-1.53z" fill="#00b871"/><path d="m18.5 15.5h-2c-.55 0-1-.45-1-1v-1.5c0-1.38 1.12-2.5 2.5-2.5.35 0 .69.07 1 .21-.88.38-1.5 1.26-1.5 2.29v1.5c0 .55.45 1 1 1z" fill="#d5dbe1"/><path d="m23.5 15.5h-2c-.55 0-1-.45-1-1v-1.5c0-1.38 1.12-2.5 2.5-2.5.35 0 .69.07 1 .21-.88.38-1.5 1.26-1.5 2.29v1.5c0 .55.45 1 1 1z" fill="#d5dbe1"/><path d="m29 10.71c-.04.02-.09.04-.13.06-.87.44-1.37 1.39-1.37 2.37v2.36h-2v-2.36c0-.98.5-1.93 1.37-2.37.72-.37 1.5-.34 2.13-.06z" fill="#d5dbe1"/><path d="m13.5 22.5h-2c-.55 0-1-.45-1-1v-1.5c0-1.38 1.12-2.5 2.5-2.5.35 0 .69.07 1 .21-.88.38-1.5 1.26-1.5 2.29v1.5c0 .55.45 1 1 1z" fill="#d5dbe1"/><path d="m9.5 15.5h-2c-.55 0-1-.45-1-1v-3.5c.41-.31.94-.5 1.5-.5.36 0 .7.08 1.01.21-.19.07-.36.17-.51.29v3.5c0 .55.45 1 1 1z" fill="#d5dbe1"/><path d="m30.25 10.75h-1.5v-.799c0-.545-.349-1.032-.849-1.185-6.57-2.011-13.233-2.01-19.801 0-.501.153-.85.64-.85 1.185v.799h-1.5v-.799c0-1.199.786-2.276 1.911-2.62 6.86-2.101 13.818-2.101 20.679.001 1.124.343 1.91 1.42 1.91 2.619z"/><path d="m20.5 16.25h-4c-.965 0-1.75-.785-1.75-1.75v-1.5c0-1.792 1.458-3.25 3.25-3.25s3.25 1.458 3.25 3.25v2.5c0 .414-.336.75-.75.75zm-2.5-5c-.965 0-1.75.785-1.75 1.75v1.5c0 .138.112.25.25.25h3.25v-1.75c0-.965-.785-1.75-1.75-1.75z"/><path d="m25.5 16.25h-5c-.414 0-.75-.336-.75-.75v-2.5c0-1.792 1.458-3.25 3.25-3.25s3.25 1.458 3.25 3.25v2.5c0 .414-.336.75-.75.75zm-4.25-1.5h3.5v-1.75c0-.965-.785-1.75-1.75-1.75s-1.75.785-1.75 1.75z"/><path d="m28.5 16.25h-3c-.414 0-.75-.336-.75-.75v-2.358c0-1.298.699-2.49 1.781-3.038 1.101-.559 2.443-.439 3.421.298.188.141.298.363.298.598v3.5c0 .965-.785 1.75-1.75 1.75zm-2.25-1.5h2.25c.138 0 .25-.112.25-.25v-3.079c-.409-.19-.977-.265-1.541.021-.583.295-.959.962-.959 1.7z"/><path d="m14.5 23.25h-3c-.965 0-1.75-.785-1.75-1.75v-1.5c0-1.792 1.458-3.25 3.25-3.25s3.25 1.458 3.25 3.25v1.5c0 .965-.785 1.75-1.75 1.75zm-1.5-5c-.965 0-1.75.785-1.75 1.75v1.5c0 .138.112.25.25.25h3c.138 0 .25-.112.25-.25v-1.5c0-.965-.785-1.75-1.75-1.75z"/><path d="m9.5 16.25h-2c-.965 0-1.75-.785-1.75-1.75v-3.5c0-.235.11-.457.298-.599 1.237-.934 3.156-.799 4.253.3.603.602.949 1.439.949 2.299v1.5c0 .965-.785 1.75-1.75 1.75zm-2.25-4.831v3.081c0 .138.112.25.25.25h2c.138 0 .25-.112.25-.25v-1.5c0-.464-.186-.915-.51-1.238-.507-.509-1.343-.651-1.99-.343z"/><path d="m12.25 25.25h1.5v5h-1.5z"/><path d="m14.5 28.061-1.5-1.5-1.5 1.5-1.061-1.061 2.03-2.03c.293-.293.768-.293 1.061 0l2.03 2.03z"/><path d="m16.25 14.5h-1.5v-1.5c0-.965-.785-1.75-1.75-1.75s-1.75.785-1.75 1.75v1.5h-1.5v-1.5c0-1.792 1.458-3.25 3.25-3.25s3.25 1.458 3.25 3.25z"/><path d="m33.71 19c-.827 0-1.5-.673-1.5-1.5s.673-1.5 1.5-1.5 1.5.673 1.5 1.5-.673 1.5-1.5 1.5zm0-2c-.275 0-.5.225-.5.5s.225.5.5.5.5-.225.5-.5-.225-.5-.5-.5z" fill="#a4afc1"/></svg>