<svg id="effect" height="512" viewBox="0 0 36 36" width="512" xmlns="http://www.w3.org/2000/svg"><path d="m1.063 15.31c3.655 5.872 3.123 11.798 4.885 14.628s7.088 7.76 20.105-.343 9.951-17.286 8.014-20.399c-9.072-14.574-39.477-4.285-33.004 6.114z" fill="#efefef"/><path d="m22.49 14.59c-.03 1.66-.31 3.3-.81 4.88l-.65 2.05c-.35 1.12-.59 2.27-.72 3.44l-.33 3.14c-.07.75-.66 1.32-1.38 1.38-.05.02-.1.02-.15.02-.75 0-1.38-.54-1.52-1.27l-.85-4.6c-.14-.77-.81-1.33-1.58-1.33s-1.44.56-1.58 1.33l-.85 4.6c-.14.73-.77 1.27-1.52 1.27-.05 0-.1 0-.15-.02-.72-.06-1.31-.63-1.38-1.38l-.33-3.14c-.13-1.17-.37-2.32-.72-3.44l-.65-2.05c-.5-1.58-.78-3.22-.81-4.88.01-.84.36-1.6.9-2.16.52-.53 1.23-.88 2.01-.92.37.01.73.05 1.09.13.26.07.51.18.75.33 1 .61 2.12.91 3.24.91s2.24-.3 3.24-.91c.24-.15.49-.26.75-.33.36-.08.72-.12 1.09-.13.78.04 1.49.39 2.01.92.54.56.89 1.32.9 2.16z" fill="#f3f3f1"/><path d="m19.44 29.12c-.23.21-.52.33-.84.36-.05.02-.1.02-.15.02-.75 0-1.38-.54-1.52-1.27l-.85-4.6c-.07-.4-.29-.74-.58-.97.28-.23.63-.36 1-.36.77 0 1.44.56 1.58 1.33l.85 4.6c.07.36.25.67.51.89z" fill="#d5dbe1"/><path d="m11.56 29.12c-.27.24-.63.38-1.01.38-.05 0-.1 0-.15-.02-.72-.06-1.31-.63-1.38-1.38l-.33-3.14c-.13-1.17-.37-2.32-.72-3.44l-.65-2.05c-.5-1.58-.78-3.22-.81-4.88.01-.84.36-1.6.9-2.16.52-.53 1.23-.88 2.01-.92.37.01.73.05 1.09.13l.09.03c-.45.16-.86.42-1.19.76-.54.56-.89 1.32-.9 2.16.03 1.66.31 3.3.81 4.88l.65 2.05c.35 1.12.59 2.27.72 3.44l.33 3.14c.04.42.24.78.54 1.02z" fill="#d5dbe1"/><path d="m18.45 30.25c-1.098 0-2.047-.79-2.257-1.878l-.851-4.606c-.074-.409-.437-.716-.843-.716s-.769.307-.842.714l-.851 4.603c-.211 1.094-1.16 1.884-2.258 1.884-1.18 0-2.158-.893-2.276-2.076l-.329-3.136c-.125-1.122-.357-2.232-.69-3.295l-.648-2.047c-.567-1.788-.855-3.636-.855-5.497 0-1.902 1.534-3.45 3.42-3.45 1.273 0 2.56.332 3.883.988.975.482 1.92.482 2.895 0 .257-.124.508-.241.768-.34l.531 1.402c-.221.083-.431.185-.641.285-1.396.69-2.817.69-4.219-.004-1.115-.551-2.177-.831-3.157-.831-1.119 0-1.98.875-1.98 1.95 0 1.706.264 3.402.785 5.043l.649 2.05c.362 1.156.614 2.361.751 3.584l.33 3.145c.042.417.379.729.784.729.381 0 .71-.278.784-.661l.849-4.595c.204-1.126 1.179-1.944 2.317-1.944s2.113.818 2.318 1.946l.849 4.599c.073.377.402.655.783.655.405 0 .742-.312.784-.725l.329-3.144c.138-1.228.39-2.433.751-3.586l.65-2.053c.521-1.641.785-3.337.785-5.043 0-.485-.177-.951-.499-1.31l1.117-1.002c.568.635.882 1.456.882 2.312 0 1.86-.288 3.709-.855 5.496l-.649 2.05c-.332 1.06-.564 2.17-.69 3.297l-.328 3.135c-.118 1.179-1.096 2.072-2.276 2.072z"/><path d="m18.75 5.75h1.5v5.5h-1.5z"/><path d="m16.75 7.75h5.5v1.5h-5.5z"/><path d="m26.75 12.75h1.5v5.5h-1.5z"/><path d="m24.75 14.75h5.5v1.5h-5.5z"/><g fill="#a4afc1"><path d="m9.336 4.056h2v1h-2z" transform="matrix(.707 -.707 .707 .707 -.194 8.643)"/><path d="m5.27 8.121h2v1h-2z" transform="matrix(.707 -.707 .707 .707 -4.26 6.958)"/><path d="m5.77 3.379h1v2h-1z" transform="matrix(.707 -.707 .707 .707 -1.26 5.716)"/></g></svg>