<svg id="effect" height="512" viewBox="0 0 36 36" width="512" xmlns="http://www.w3.org/2000/svg"><path d="m4.167 27.623c0-6.917-3.583-11.667-3.583-15s1.916-10.333 17.249-10.333 17.583 9.417 17.583 13.083c.001 17.167-31.249 24.5-31.249 12.25z" fill="#efefef"/><path d="m15.268 27.647.228-1.914c.028-.232.393-1.932.675-3.229.219-1.005.329-2.029.329-3.058 0-1.075-.871-1.946-1.946-1.946-.362 0-.718.098-1.029.285-1.247.748-2.804.748-4.051 0-.31-.187-.666-.285-1.028-.285-1.075 0-1.946.871-1.946 1.946 0 1.028.11 2.052.329 3.057.282 1.297.648 2.998.675 3.23l.228 1.914c.058.485.512.853 1.054.853.51 0 .948-.327 1.042-.779l.586-3.31c.098-.47.554-.811 1.086-.811.532 0 .988.341 1.086.811l.586 3.31c.094.451.532.779 1.042.779.542 0 .996-.368 1.054-.853z" fill="#f3f3f1"/><path d="m17.5 8.5-1.793 1.793c-.391.391-.391 1.024 0 1.414l3.586 3.586c.391.391 1.024.391 1.414 0l1.793-1.793z" fill="#2fdf84"/><path d="m21 15-.29.29c-.39.39-1.03.39-1.42 0l-3.58-3.58c-.39-.39-.39-1.03 0-1.42l1.79-1.79 1 1-.79.79c-.39.39-.39 1.03 0 1.42z" fill="#00b871"/><path d="m9.79 27.86c-.16.38-.55.64-1 .64-.55 0-1-.37-1.06-.85l-.23-1.92c-.02-.23-.39-1.93-.67-3.23-.22-1-.33-2.03-.33-3.05 0-.54.22-1.03.57-1.38s.84-.57 1.38-.57c.36 0 .7.1 1.01.27-.15.08-.28.19-.39.3-.35.35-.57.84-.57 1.38 0 1.02.11 2.05.33 3.05.28 1.3.65 3 .67 3.23l.23 1.92c.01.07.03.15.06.21z" fill="#d5dbe1"/><path d="m15.21 27.86c-.14.38-.53.64-1 .64-.51 0-.94-.33-1.04-.78l-.58-3.31c-.02-.09-.05-.17-.09-.24.18-.34.57-.57 1-.57.53 0 .99.34 1.09.81l.58 3.31c.01.05.03.1.04.14z" fill="#d5dbe1"/><path d="m14.214 29.25c-.862 0-1.61-.578-1.777-1.375l-.589-3.334c-.018-.082-.155-.191-.348-.191s-.33.109-.352.215l-.581 3.287c-.171.82-.919 1.398-1.781 1.398-.924 0-1.697-.651-1.8-1.515l-.228-1.914c-.016-.119-.144-.764-.663-3.159-.229-1.055-.346-2.137-.346-3.216 0-1.486 1.209-2.696 2.695-2.696.499 0 .988.136 1.415.392 1.012.606 2.268.606 3.279 0 .427-.256.916-.392 1.415-.392 1.486 0 2.695 1.209 2.695 2.696 0 1.08-.116 2.162-.347 3.218-.461 2.119-.645 3.021-.663 3.159l-.227 1.913c-.1.863-.873 1.514-1.797 1.514zm-2.714-6.4c.884 0 1.648.591 1.82 1.406l.589 3.334c.015.064.138.159.305.159.172 0 .299-.099.31-.191l.228-1.914c.011-.086.038-.316.688-3.3.207-.951.312-1.926.312-2.898 0-.66-.536-1.196-1.195-1.196-.227 0-.449.062-.644.178-1.486.892-3.334.892-4.822 0-.194-.117-.417-.178-.644-.178-.659 0-1.195.537-1.195 1.196 0 .972.104 1.947.312 2.897.573 2.642.669 3.148.688 3.302l.228 1.914c.011.092.138.191.31.191.167 0 .29-.095.309-.183l.581-3.287c.172-.839.936-1.43 1.82-1.43z"/><path d="m20 16.335c-.448 0-.896-.17-1.237-.512l-3.586-3.586c-.683-.682-.683-1.792 0-2.475l1.793-1.792 1.06 1.06-1.793 1.793c-.098.098-.098.256 0 .354l3.586 3.586c.098.098.256.098.354 0l1.793-1.793 1.061 1.061-1.793 1.793c-.342.341-.79.511-1.238.511z"/><path d="m22.25 4.058h1.5v19.885h-1.5z" transform="matrix(.707 -.707 .707 .707 -3.163 20.364)"/><path d="m15.543 11.25h2.914v1.5h-2.914z" transform="matrix(.707 -.707 .707 .707 -3.506 15.536)"/><path d="m17.543 13.25h2.914v1.5h-2.914z" transform="matrix(.707 -.707 .707 .707 -4.335 17.536)"/><g fill="#a4afc1"><path d="m13.258 4.555h2v1h-2z" transform="matrix(.707 -.707 .707 .707 .601 11.563)"/><path d="m9.191 8.621h2.001v1h-2.001z" transform="matrix(.707 -.707 .707 .707 -3.465 9.878)"/><path d="m9.692 3.878h1v2.001h-1z" transform="matrix(.707 -.707 .707 .707 -.464 8.638)"/></g></svg>